<svg width="148" height="111" viewBox="0 0 148 111" fill="none" xmlns="http://www.w3.org/2000/svg">
<path d="M74.1172 110.287C105.688 110.287 131.281 108.793 131.281 106.95C131.281 105.106 105.688 103.612 74.1172 103.612C42.5465 103.612 16.9534 105.106 16.9534 106.95C16.9534 108.793 42.5465 110.287 74.1172 110.287Z" fill="#F5F5F5"/>
<path d="M103.379 32.4147L100.454 31.2354C100.454 31.2354 96.5948 38.2729 95.4892 38.6296C93.9856 39.1131 90.8722 40.4575 89.0266 40.6934C88.776 40.9882 88.3662 41.9051 88.4045 42.2383C90.884 43.0667 96.3324 41.967 97.4999 41.1002C100.156 39.1337 103.379 32.4147 103.379 32.4147Z" fill="#E58A7B"/>
<path d="M104.278 30.8137C104.823 32.8274 101.869 36.8783 101.869 36.8783L97.9981 34.7084C97.9981 34.7084 98.7234 33.0426 99.6079 31.3474C101.026 28.6084 103.656 28.517 104.278 30.8137Z" fill="#4CAF4F"/>
<path opacity="0.2" d="M104.278 30.8137C104.823 32.8274 101.869 36.8783 101.869 36.8783L97.9981 34.7084C97.9981 34.7084 98.7234 33.0426 99.6079 31.3474C101.026 28.6084 103.656 28.517 104.278 30.8137Z" fill="black"/>
<path opacity="0.2" d="M99.5342 35.5752L101.058 36.4302L101.327 31.7513C100.439 32.4324 99.8143 34.4844 99.5342 35.5752Z" fill="black"/>
<path d="M101.731 29.2983C101.731 29.2983 98.7175 36.0027 100.475 48.4856H112.347C112.536 46.6636 111.911 37.7716 114.172 29.1863C112.87 28.9318 111.552 28.7634 110.228 28.6821C108.547 28.5848 106.863 28.5848 105.183 28.6821C104.018 28.8004 102.864 29.0064 101.731 29.2983Z" fill="#4CAF4F"/>
<path opacity="0.2" d="M101.731 29.2983C101.731 29.2983 98.7175 36.0027 100.475 48.4856H112.347C112.536 46.6636 111.911 37.7716 114.172 29.1863C112.87 28.9318 111.552 28.7634 110.228 28.6821C108.547 28.5848 106.863 28.5848 105.183 28.6821C104.018 28.8004 102.864 29.0064 101.731 29.2983Z" fill="black"/>
<g style="mix-blend-mode:multiply">
<path d="M98.9769 107.215C98.9593 107.533 103.461 107.79 109.031 107.79C114.6 107.79 119.134 107.533 119.152 107.215C119.17 106.897 114.671 106.643 109.098 106.643C103.526 106.643 98.9976 106.9 98.9769 107.215Z" fill="#E8ECF1"/>
</g>
<path d="M106.902 98.8487L104.796 99.6638L106.61 104.35L108.716 103.535L106.902 98.8487Z" fill="#E58A7B"/>
<path d="M116.292 104.948H114.072L113.258 99.809H115.478L116.292 104.948Z" fill="#E58A7B"/>
<path d="M113.919 104.691H116.413C116.456 104.691 116.498 104.707 116.531 104.735C116.564 104.763 116.586 104.802 116.593 104.845L116.914 106.817C116.921 106.866 116.917 106.917 116.903 106.965C116.888 107.012 116.864 107.057 116.831 107.094C116.798 107.132 116.757 107.162 116.711 107.182C116.666 107.202 116.616 107.213 116.566 107.212C115.697 107.197 115.278 107.144 114.181 107.144C113.506 107.144 112.117 107.215 111.18 107.215C110.242 107.215 110.18 106.295 110.567 106.21C112.3 105.835 112.972 105.325 113.55 104.83C113.652 104.74 113.783 104.691 113.919 104.691Z" fill="#263238"/>
<path d="M106.548 103.931L108.907 103.241C108.949 103.229 108.994 103.232 109.034 103.249C109.074 103.266 109.107 103.296 109.128 103.335L110.012 105.104C110.033 105.149 110.043 105.198 110.043 105.247C110.043 105.296 110.032 105.345 110.011 105.39C109.99 105.434 109.959 105.474 109.921 105.506C109.883 105.537 109.839 105.56 109.791 105.573C108.933 105.809 108.358 105.953 107.285 106.266C106.545 106.481 105.79 106.832 105.059 107.065C104.552 107.227 103.361 107.233 102.745 107.233C101.834 107.233 101.63 106.272 102.022 106.227C103.01 106.118 103.143 106.168 103.688 105.894C104.581 105.504 105.39 104.945 106.07 104.249C106.199 104.103 106.364 103.993 106.548 103.931Z" fill="#263238"/>
<path d="M89.3981 40.6816L86.9569 39.6585L85.9515 42.365C86.9521 42.5175 87.97 42.5175 88.9706 42.365L89.3981 40.6816Z" fill="#E58A7B"/>
<path d="M85.1408 39.5878L85.0759 41.3862L85.9516 42.3591L86.9569 39.6526L85.1408 39.5878Z" fill="#E58A7B"/>
<path d="M107.191 99.2466L105.079 100.062L106.014 102.485L108.126 101.67L107.191 99.2466Z" fill="#CF6F64"/>
<path d="M115.478 99.809H113.258L113.68 102.459H115.9L115.478 99.809Z" fill="#CF6F64"/>
<path opacity="0.2" d="M100.097 45.1099C100.142 45.6435 100.192 46.1889 100.257 46.7491L109.084 43.8834C110.462 43.4749 111.66 42.6086 112.48 41.4275C112.515 40.6403 112.56 39.8119 112.627 38.948C112.657 38.5294 112.692 38.0989 112.731 37.6626C112.769 37.2262 112.822 36.7427 112.878 36.2769L100.097 45.1099Z" fill="black"/>
<path d="M102.981 35.4396L102.686 35.4042C102.86 33.9301 103.96 32.7685 105.118 32.7979V33.0928C104.104 33.0721 103.137 34.1188 102.981 35.4396Z" fill="white"/>
<path d="M104.552 38.1608H104.502V37.866C105.516 37.9043 106.468 36.8459 106.625 35.528L106.92 35.5634C106.763 37.0051 105.699 38.1608 104.552 38.1608Z" fill="white"/>
<path d="M110.062 23.0009C109.647 24.6253 109.157 27.6001 110.228 28.6822C110.228 28.6822 109.479 30.3302 106.463 30.3302C103.706 30.3302 105.183 28.6822 105.183 28.6822C107.017 28.2517 107.049 26.9132 106.808 25.6454L110.062 23.0009Z" fill="#E58A7B"/>
<path d="M108.736 24.0799L106.811 25.6455C106.87 25.9368 106.905 26.2327 106.914 26.5299C107.477 27.0901 108.606 25.672 108.721 24.9467C108.779 24.6612 108.784 24.3673 108.736 24.0799Z" fill="#CF6F64"/>
<path d="M103.5 22.9802C103.634 23.2124 103.814 23.4145 104.03 23.5738C104.245 23.733 104.491 23.8461 104.753 23.906C105.46 24.0622 105.814 23.4107 105.619 22.7562C105.445 22.1665 104.865 21.3734 104.145 21.509C103.991 21.5408 103.847 21.609 103.725 21.7079C103.602 21.8069 103.505 21.9337 103.442 22.0778C103.379 22.2218 103.351 22.379 103.361 22.536C103.371 22.693 103.419 22.8453 103.5 22.9802Z" fill="#CF6F64"/>
<path d="M104.67 17.7825C103.567 18.2866 103.178 22.6677 104.564 23.3163C105.95 23.965 106.757 16.8243 104.67 17.7825Z" fill="#263238"/>
<path d="M110.399 20.5568C110.133 22.7562 110.104 24.0504 108.924 25.1767C108.559 25.5504 108.097 25.8159 107.591 25.9438C107.084 26.0717 106.551 26.0571 106.052 25.9015C105.553 25.746 105.107 25.4555 104.763 25.0623C104.418 24.669 104.189 24.1883 104.101 23.6731C103.744 21.6977 104.237 18.434 106.442 17.5584C106.905 17.354 107.415 17.2773 107.918 17.3362C108.421 17.395 108.899 17.5874 109.303 17.8933C109.706 18.1991 110.021 18.6074 110.213 19.0757C110.406 19.544 110.47 20.0554 110.399 20.5568Z" fill="#E58A7B"/>
<path d="M106.775 18.9205C108.408 18.5047 109.608 18.2217 109.178 19.5809C108.609 21.397 107.925 23.1542 108.842 23.2338C109.402 23.2839 111.879 22.2343 111.563 21.17C111.289 20.2442 112.448 19.9907 112.654 19.5219C113.418 17.8237 111.233 18.0478 111.622 17.0159C112.011 15.984 109.853 14.3212 108.674 15.1496C106.754 16.4881 103.461 16.4675 105.192 14.2651C106.433 12.6937 104.219 13.0151 104.219 13.0151C104.219 13.0151 105.557 13.8082 103.305 15.0346C100.923 16.3437 103.107 19.8609 106.775 18.9205Z" fill="#263238"/>
<path d="M111.265 22.9802C110.943 23.4468 110.458 23.7768 109.906 23.906C109.178 24.0622 108.898 23.4107 109.172 22.7562C109.417 22.1665 110.089 21.3734 110.785 21.509C111.481 21.6447 111.64 22.4024 111.265 22.9802Z" fill="#E58A7B"/>
<path d="M100.475 48.4856C100.475 48.4856 98.4816 66.3226 98.3254 73.0918C98.1662 80.1323 105.08 102.1 105.08 102.1L108.618 100.626C108.618 100.626 104.49 80.5539 105.08 73.6402C105.705 66.1015 108.288 48.4974 108.288 48.4974L100.475 48.4856Z" fill="#4CAF4F"/>
<path opacity="0.2" d="M105.428 53.3827C103.839 56.6788 104.909 63.1974 105.77 67.0597C106.097 64.3325 106.486 61.3725 106.855 58.6335C106.819 54.4234 106.492 51.1715 105.428 53.3827Z" fill="black"/>
<path d="M108.462 99.4581C108.479 99.4581 108.88 100.584 108.88 100.584L104.8 102.3L104.157 101.103L108.462 99.4581Z" fill="#4CAF4F"/>
<path d="M104.688 48.4856C104.688 48.4856 106.212 65.4499 107.22 71.8034C108.329 78.7643 112.675 101.946 112.675 101.946H116.74C116.74 101.946 114.305 79.3274 113.845 72.4344C113.344 64.9576 112.347 48.4856 112.347 48.4856H104.688Z" fill="#4CAF4F"/>
<path d="M116.802 100.888C116.82 100.888 116.938 102.023 116.938 102.023H112.468L112.15 100.72L116.802 100.888Z" fill="#4CAF4F"/>
<path opacity="0.2" d="M115.245 99.5436C115.236 99.5437 115.227 99.5405 115.22 99.5346C115.213 99.5286 115.209 99.5203 115.207 99.5112C115.184 99.3048 112.987 78.8734 112.574 72.682C112.126 65.9659 111.224 51.0683 111.215 50.918C111.215 50.9131 111.215 50.9082 111.217 50.9035C111.219 50.8989 111.221 50.8946 111.224 50.891C111.228 50.8874 111.232 50.8845 111.236 50.8826C111.241 50.8806 111.246 50.8796 111.251 50.8796C111.26 50.8796 111.27 50.8832 111.277 50.8898C111.284 50.8964 111.288 50.9054 111.289 50.915C111.289 51.0654 112.2 65.9512 112.648 72.6791C113.061 78.8704 115.257 99.2871 115.278 99.5083C115.279 99.5131 115.279 99.5181 115.277 99.5229C115.276 99.5277 115.274 99.5322 115.271 99.5361C115.268 99.54 115.264 99.5432 115.26 99.5455C115.255 99.5478 115.25 99.5492 115.245 99.5495V99.5436Z" fill="black"/>
<path d="M107.026 21.17C107.026 21.3499 106.914 21.4943 106.796 21.4943C106.678 21.4943 106.592 21.3499 106.604 21.17C106.616 20.9902 106.716 20.8457 106.834 20.8457C106.952 20.8457 107.038 20.9931 107.026 21.17Z" fill="#263238"/>
<path d="M105.003 21.17C105.003 21.3499 104.888 21.4943 104.773 21.4943C104.658 21.4943 104.57 21.3499 104.579 21.17C104.588 20.9902 104.694 20.8457 104.812 20.8457C104.93 20.8457 105.015 20.9931 105.003 21.17Z" fill="#263238"/>
<path d="M105.64 21.2614C105.394 21.8106 105.077 22.325 104.697 22.7915C104.991 23.0864 105.543 22.9507 105.543 22.9507L105.64 21.2614Z" fill="#DF5753"/>
<path d="M105.693 23.7026C105.686 23.7026 105.679 23.7012 105.673 23.6985C105.667 23.6958 105.661 23.6918 105.657 23.6869C105.652 23.6819 105.648 23.676 105.646 23.6696C105.644 23.6632 105.643 23.6563 105.643 23.6495C105.644 23.6352 105.65 23.6216 105.66 23.6118C105.671 23.6019 105.685 23.5964 105.699 23.5964C105.924 23.598 106.147 23.549 106.352 23.4531C106.556 23.3572 106.736 23.2168 106.878 23.0421C106.889 23.0332 106.902 23.0283 106.915 23.0283C106.929 23.0283 106.942 23.0332 106.952 23.0421C106.962 23.052 106.967 23.0653 106.967 23.079C106.967 23.0928 106.962 23.106 106.952 23.1159C106.799 23.3014 106.607 23.4504 106.389 23.552C106.171 23.6535 105.933 23.7049 105.693 23.7026Z" fill="#263238"/>
<path d="M107.385 20.6275C107.371 20.6348 107.356 20.6385 107.34 20.6385C107.324 20.6385 107.308 20.6348 107.294 20.6275C107.184 20.5562 107.058 20.5119 106.928 20.498C106.797 20.4842 106.665 20.5013 106.542 20.5479C106.53 20.5539 106.517 20.5574 106.504 20.5583C106.49 20.5592 106.477 20.5573 106.464 20.5529C106.452 20.5485 106.44 20.5417 106.43 20.5327C106.42 20.5237 106.412 20.5129 106.407 20.5007C106.396 20.4745 106.395 20.445 106.406 20.4186C106.416 20.3922 106.437 20.3709 106.463 20.3592C106.617 20.2963 106.784 20.2714 106.95 20.2868C107.115 20.3022 107.275 20.3574 107.415 20.4477C107.426 20.4554 107.436 20.4652 107.443 20.4767C107.451 20.4881 107.456 20.5009 107.458 20.5144C107.461 20.5278 107.461 20.5416 107.458 20.555C107.455 20.5683 107.449 20.5809 107.441 20.5921C107.427 20.609 107.407 20.6213 107.385 20.6275Z" fill="#263238"/>
<path d="M104.222 20.0379C104.206 20.034 104.192 20.0259 104.181 20.0143C104.171 20.0047 104.163 19.9932 104.158 19.9805C104.152 19.9679 104.15 19.9543 104.15 19.9406C104.15 19.9268 104.152 19.9132 104.158 19.9006C104.163 19.8879 104.171 19.8765 104.181 19.8669C104.294 19.7401 104.434 19.6412 104.592 19.5778C104.749 19.5144 104.919 19.4882 105.089 19.5013C105.102 19.5034 105.115 19.5082 105.127 19.5155C105.138 19.5229 105.148 19.5325 105.156 19.5438C105.164 19.5551 105.169 19.5679 105.172 19.5814C105.174 19.5949 105.174 19.6088 105.171 19.6221C105.165 19.6494 105.149 19.6735 105.126 19.6898C105.103 19.7061 105.075 19.7135 105.047 19.7106C104.913 19.7022 104.779 19.7243 104.655 19.7754C104.531 19.8265 104.42 19.9051 104.331 20.0054C104.318 20.0203 104.3 20.0313 104.281 20.037C104.262 20.0427 104.241 20.043 104.222 20.0379Z" fill="#263238"/>
<path d="M115.313 32.0874L112.247 31.2707C112.247 31.2707 109.24 38.6738 108.176 39.1544C106.731 39.8148 103.072 42.1026 101.515 43.1846C101.43 43.5532 101.498 44.529 101.692 44.7973C104.346 44.3138 109.426 42.3591 110.487 41.3656C112.908 39.0984 115.313 32.0874 115.313 32.0874Z" fill="#E58A7B"/>
<path d="M113.173 105.08C113.023 105.092 112.874 105.052 112.751 104.965C112.713 104.931 112.685 104.888 112.669 104.839C112.653 104.79 112.65 104.738 112.66 104.688C112.662 104.657 112.672 104.627 112.69 104.601C112.707 104.575 112.732 104.554 112.76 104.541C113.008 104.414 113.701 104.853 113.78 104.904C113.789 104.909 113.796 104.917 113.799 104.927C113.803 104.936 113.804 104.947 113.801 104.957C113.798 104.967 113.793 104.976 113.786 104.984C113.779 104.992 113.77 104.998 113.76 105.001C113.567 105.048 113.371 105.075 113.173 105.08ZM112.878 104.621C112.856 104.616 112.833 104.616 112.81 104.621C112.799 104.626 112.79 104.635 112.783 104.646C112.777 104.657 112.774 104.67 112.775 104.682C112.767 104.717 112.768 104.753 112.779 104.786C112.789 104.82 112.808 104.85 112.834 104.874C112.949 104.977 113.238 104.989 113.618 104.915C113.392 104.766 113.137 104.666 112.869 104.621H112.878Z" fill="#4CAF4F"/>
<path d="M113.745 105.001C113.737 105.003 113.729 105.003 113.721 105.001C113.5 104.877 113.084 104.391 113.146 104.143C113.156 104.104 113.178 104.069 113.209 104.044C113.241 104.018 113.28 104.005 113.32 104.004C113.36 103.999 113.4 104.002 113.438 104.014C113.476 104.026 113.512 104.046 113.541 104.072C113.786 104.281 113.801 104.924 113.801 104.957C113.802 104.966 113.8 104.976 113.796 104.985C113.791 104.993 113.783 105 113.774 105.004C113.764 105.006 113.754 105.005 113.745 105.001ZM113.35 104.102H113.329C113.261 104.102 113.252 104.14 113.249 104.155C113.214 104.299 113.476 104.668 113.695 104.842C113.694 104.593 113.617 104.35 113.474 104.146C113.439 104.116 113.395 104.1 113.35 104.102Z" fill="#4CAF4F"/>
<path d="M105.345 104.712C105.165 104.775 104.968 104.775 104.788 104.712C104.747 104.69 104.712 104.658 104.687 104.618C104.662 104.579 104.647 104.534 104.644 104.488C104.64 104.459 104.644 104.429 104.654 104.402C104.665 104.374 104.683 104.35 104.705 104.332C104.941 104.119 105.905 104.332 106.014 104.373C106.025 104.376 106.034 104.382 106.04 104.39C106.047 104.399 106.05 104.409 106.05 104.42C106.05 104.431 106.047 104.442 106.042 104.451C106.036 104.461 106.027 104.468 106.017 104.473C105.8 104.571 105.575 104.651 105.345 104.712ZM104.865 104.361C104.831 104.368 104.799 104.383 104.773 104.405C104.764 104.412 104.757 104.422 104.752 104.433C104.748 104.444 104.747 104.456 104.75 104.467C104.752 104.498 104.761 104.528 104.778 104.554C104.794 104.581 104.817 104.602 104.844 104.618C105 104.7 105.363 104.635 105.832 104.438C105.516 104.358 105.189 104.332 104.865 104.361Z" fill="#4CAF4F"/>
<path d="M106.009 104.473H105.985C105.69 104.42 105.1 104.081 105.083 103.827C105.083 103.768 105.109 103.686 105.251 103.639C105.299 103.622 105.349 103.615 105.4 103.618C105.451 103.621 105.5 103.634 105.546 103.656C105.864 103.813 106.032 104.379 106.041 104.405C106.043 104.414 106.043 104.424 106.04 104.432C106.038 104.441 106.033 104.449 106.026 104.455C106.022 104.463 106.016 104.469 106.009 104.473ZM105.31 103.727H105.28C105.189 103.76 105.189 103.798 105.189 103.81C105.189 103.963 105.616 104.243 105.914 104.337C105.846 104.101 105.7 103.893 105.501 103.748C105.442 103.718 105.374 103.71 105.31 103.727Z" fill="#4CAF4F"/>
<path d="M101.766 43.0107L98.691 44.4259L98.3342 45.3104L99.4693 46.074C99.4693 46.074 101.592 45.844 102.196 44.4789L101.766 43.0107Z" fill="#E58A7B"/>
<path d="M101.896 44.8475C101.827 44.2566 101.632 43.6875 101.324 43.1788L101.81 42.8132C102.176 43.3994 102.41 44.0584 102.494 44.7443L101.896 44.8475Z" fill="#263238"/>
<path d="M102.421 43.4294C102.486 43.5316 102.517 43.6514 102.512 43.7724C102.507 43.8935 102.464 44.0099 102.39 44.1058C102.316 44.2018 102.214 44.2726 102.098 44.3087C101.983 44.3447 101.859 44.3443 101.743 44.3074C101.628 44.2705 101.527 44.1989 101.453 44.1025C101.38 44.006 101.338 43.8893 101.334 43.7682C101.329 43.6471 101.362 43.5276 101.428 43.4258C101.493 43.324 101.589 43.245 101.701 43.1994C101.827 43.1352 101.973 43.1233 102.108 43.1664C102.243 43.2094 102.355 43.304 102.421 43.4294Z" fill="#263238"/>
<path d="M96.6124 45.5698L97.0223 45.9826L99.7818 44.8032L98.691 44.4259L96.6124 45.5698Z" fill="#E58A7B"/>
<path opacity="0.2" d="M108.462 99.4581C108.479 99.4581 108.88 100.584 108.88 100.584L104.8 102.3L104.157 101.103L108.462 99.4581Z" fill="black"/>
<path opacity="0.2" d="M116.802 100.888C116.82 100.888 116.938 102.023 116.938 102.023H112.468L112.15 100.72L116.802 100.888Z" fill="black"/>
<path d="M116.112 31.2383C116.923 33.8534 113.754 37.4297 113.754 37.4297L109.375 35.643C109.894 34.1315 110.493 32.6484 111.168 31.2C112.512 28.3018 115.293 28.5996 116.112 31.2383Z" fill="#4CAF4F"/>
<path opacity="0.2" d="M116.112 31.2383C116.923 33.8534 113.754 37.4297 113.754 37.4297L109.375 35.643C109.894 34.1315 110.493 32.6484 111.168 31.2C112.512 28.3018 115.293 28.5996 116.112 31.2383Z" fill="black"/>
<path d="M72.6078 5.03714H70.7238V5.34081H72.6078V5.03714Z" fill="#4CAF4F"/>
<path d="M96.9952 17.0561L96.7672 22.1161L97.0706 22.1298L97.2986 17.0698L96.9952 17.0561Z" fill="#4CAF4F"/>
<path d="M96.409 6.3992H61.6196L58.3824 78.8439H93.1718L96.409 6.3992Z" fill="#4CAF4F"/>
<path opacity="0.56" d="M95.3713 7.39572H60.5818L57.3446 79.8404H92.1341L95.3713 7.39572Z" fill="#FAFAFA"/>
<path opacity="0.07" d="M94.3335 8.38928H59.544L56.3039 80.834H91.0933L94.3335 8.38928Z" fill="#4CAF4F"/>
<path d="M90.374 39.9858H60.6791L60.4314 45.5285H90.1263L90.374 39.9858Z" fill="white"/>
<path d="M77.0095 35.9408H60.8589L60.7499 38.4203H76.9004L77.0095 35.9408Z" fill="#4CAF4F"/>
<path d="M89.7047 54.9453H60.0098L59.7622 60.488H89.4571L89.7047 54.9453Z" fill="white"/>
<path opacity="0.47" d="M84.2593 67.9736H64.2907L63.9929 74.6161H83.9615L84.2593 67.9736Z" fill="#4CAF4F"/>
<path d="M82.9237 75.648H62.9551C62.9464 75.6502 62.9373 75.6502 62.9286 75.648C62.9257 75.6394 62.9257 75.63 62.9286 75.6214L63.2234 68.9761C63.2234 68.9715 63.2243 68.9671 63.2261 68.9629C63.228 68.9588 63.2306 68.9551 63.2339 68.952C63.2373 68.949 63.2412 68.9466 63.2455 68.9452C63.2498 68.9437 63.2543 68.9432 63.2588 68.9436H83.2274C83.231 68.9418 83.2351 68.9409 83.2392 68.9409C83.2433 68.9409 83.2473 68.9418 83.251 68.9436C83.253 68.9472 83.2541 68.9513 83.2541 68.9554C83.2541 68.9596 83.253 68.9636 83.251 68.9672L82.962 75.6273C82.9585 75.6343 82.9529 75.6399 82.9461 75.6436C82.9392 75.6473 82.9314 75.6488 82.9237 75.648ZM62.9905 75.5772H82.8883L83.1832 69.0026H63.2853L62.9905 75.5772Z" fill="white"/>
<path d="M73.5217 50.9003H60.1897L60.0806 53.3827H73.4097L73.5217 50.9003Z" fill="#4CAF4F"/>
<path d="M83.8789 22.081C83.8027 23.6941 83.2291 25.2441 82.2368 26.5181C81.5022 27.4805 80.5569 28.2618 79.4734 28.802C78.3899 29.3422 77.1971 29.6269 75.9864 29.6345C75.0081 29.6419 74.0386 29.449 73.1377 29.0676C72.2367 28.6862 71.4234 28.1243 70.7478 27.4167C70.0722 26.7091 69.5486 25.8706 69.2094 24.953C68.8701 24.0353 68.7222 23.0579 68.775 22.081C68.8787 20.0538 69.7529 18.1428 71.2189 16.7387C72.6848 15.3347 74.6318 14.5437 76.6616 14.5276C77.6407 14.5184 78.6112 14.7102 79.5132 15.0909C80.4153 15.4717 81.2297 16.0334 81.9061 16.7413C82.5825 17.4492 83.1065 18.2883 83.4459 19.2067C83.7852 20.1251 83.9326 21.1034 83.8789 22.081Z" fill="white"/>
<path d="M84.5895 16.1078C84.5702 16.5368 84.4177 16.949 84.1531 17.2871C83.9574 17.5427 83.7058 17.7502 83.4176 17.8938C83.1294 18.0374 82.8123 18.1133 82.4903 18.1156C82.1784 18.1175 81.8707 18.043 81.5942 17.8986C81.3177 17.7541 81.0808 17.5442 80.9041 17.2871C80.6702 16.9397 80.5544 16.5262 80.5739 16.1078C80.6024 15.5696 80.8352 15.0625 81.2247 14.69C81.6142 14.3174 82.1312 14.1075 82.6702 14.103C82.9302 14.1006 83.1879 14.1515 83.4275 14.2526C83.6671 14.3536 83.8835 14.5026 84.0633 14.6904C84.2431 14.8783 84.3826 15.1009 84.4731 15.3447C84.5635 15.5885 84.6032 15.8482 84.5895 16.1078Z" fill="#4CAF4F"/>
<path d="M63.8779 42.7572C63.8638 42.9947 63.7601 43.2181 63.5877 43.3822C63.4154 43.5464 63.1872 43.6391 62.9492 43.6416C62.8343 43.643 62.7204 43.6208 62.6144 43.5764C62.5084 43.5319 62.4127 43.4662 62.3331 43.3833C62.2535 43.3004 62.1918 43.2021 62.1517 43.0944C62.1116 42.9867 62.0941 42.8719 62.1001 42.7572C62.1129 42.5191 62.2162 42.2949 62.3888 42.1305C62.5615 41.9661 62.7904 41.8738 63.0288 41.8727C63.1436 41.8717 63.2574 41.8942 63.3632 41.9388C63.469 41.9834 63.5645 42.0491 63.644 42.1319C63.7235 42.2147 63.7853 42.3129 63.8255 42.4204C63.8657 42.5279 63.8836 42.6425 63.8779 42.7572Z" fill="#263238"/>
<path d="M67.8522 42.7572C67.8387 42.995 67.7352 43.2188 67.5628 43.383C67.3903 43.5473 67.1617 43.6398 66.9235 43.6416C66.8089 43.6426 66.6952 43.6201 66.5896 43.5755C66.4839 43.5309 66.3886 43.4651 66.3093 43.3823C66.23 43.2994 66.1686 43.2012 66.1287 43.0937C66.0888 42.9862 66.0713 42.8717 66.0774 42.7572C66.0901 42.5196 66.193 42.2958 66.365 42.1315C66.537 41.9671 66.7652 41.8746 67.0031 41.8727C67.118 41.8713 67.232 41.8935 67.338 41.938C67.444 41.9824 67.5397 42.0481 67.6193 42.131C67.6989 42.2139 67.7606 42.3122 67.8007 42.4199C67.8407 42.5276 67.8583 42.6424 67.8522 42.7572Z" fill="#263238"/>
<path d="M71.8294 42.7572C71.8159 42.995 71.7124 43.2188 71.5399 43.383C71.3675 43.5473 71.1389 43.6398 70.9007 43.6416C70.7859 43.6426 70.6722 43.6201 70.5664 43.5755C70.4606 43.5309 70.365 43.4652 70.2855 43.3824C70.206 43.2996 70.1443 43.2014 70.1041 43.0939C70.0638 42.9864 70.046 42.8718 70.0516 42.7572C70.0651 42.5193 70.1686 42.2956 70.3411 42.1313C70.5136 41.967 70.7421 41.8745 70.9803 41.8727C71.0952 41.8713 71.2092 41.8935 71.3152 41.938C71.4211 41.9824 71.5169 42.0481 71.5965 42.131C71.6761 42.2139 71.7378 42.3122 71.7779 42.4199C71.8179 42.5276 71.8355 42.6424 71.8294 42.7572Z" fill="#263238"/>
<path d="M63.2087 57.7167C63.1945 57.9542 63.0908 58.1776 62.9185 58.3417C62.7461 58.5059 62.518 58.5986 62.28 58.6011C62.1652 58.6021 62.0514 58.5796 61.9456 58.535C61.8399 58.4904 61.7443 58.4247 61.6648 58.3419C61.5853 58.2591 61.5235 58.1609 61.4833 58.0534C61.4431 57.9459 61.4253 57.8313 61.4309 57.7167C61.4444 57.4788 61.5478 57.2551 61.7203 57.0908C61.8928 56.9265 62.1214 56.834 62.3596 56.8322C62.4744 56.8312 62.5881 56.8537 62.6939 56.8983C62.7997 56.9429 62.8953 57.0086 62.9748 57.0914C63.0543 57.1742 63.116 57.2724 63.1562 57.3799C63.1965 57.4874 63.2143 57.602 63.2087 57.7167Z" fill="#263238"/>
<path d="M67.183 57.7167C67.1695 57.954 67.0664 58.1773 66.8946 58.3415C66.7227 58.5057 66.4949 58.5985 66.2572 58.6011C66.1423 58.6025 66.0283 58.5803 65.9223 58.5359C65.8164 58.4914 65.7206 58.4257 65.641 58.3428C65.5615 58.2599 65.4997 58.1616 65.4597 58.0539C65.4196 57.9462 65.402 57.8314 65.4081 57.7167C65.4216 57.4788 65.5251 57.2551 65.6976 57.0908C65.8701 56.9265 66.0986 56.834 66.3368 56.8322C66.4515 56.8312 66.5651 56.8537 66.6707 56.8983C66.7764 56.9429 66.8718 57.0087 66.951 57.0916C67.0303 57.1744 67.0918 57.2726 67.1316 57.3801C67.1715 57.4876 67.189 57.6022 67.183 57.7167Z" fill="#263238"/>
<path d="M71.169 57.7167C71.1555 57.9545 71.052 58.1783 70.8795 58.3425C70.707 58.5068 70.4785 58.5993 70.2403 58.6011C70.1256 58.6017 70.0121 58.5789 69.9065 58.5341C69.8009 58.4894 69.7055 58.4237 69.6261 58.341C69.5467 58.2583 69.4849 58.1603 69.4445 58.0529C69.4041 57.9456 69.386 57.8312 69.3912 57.7167C69.4054 57.4791 69.5091 57.2557 69.6814 57.0916C69.8538 56.9274 70.0819 56.8347 70.3199 56.8322C70.4348 56.8308 70.5488 56.853 70.6548 56.8975C70.7607 56.9419 70.8565 57.0076 70.9361 57.0905C71.0156 57.1734 71.0774 57.2717 71.1174 57.3794C71.1575 57.4871 71.1751 57.6019 71.169 57.7167Z" fill="#263238"/>
<path d="M75.1374 57.7167C75.1232 57.9542 75.0195 58.1776 74.8472 58.3417C74.6748 58.5059 74.4467 58.5986 74.2087 58.6011C74.094 58.6017 73.9804 58.5789 73.8748 58.5341C73.7693 58.4894 73.6739 58.4237 73.5945 58.341C73.515 58.2583 73.4533 58.1603 73.4129 58.0529C73.3725 57.9456 73.3544 57.8312 73.3596 57.7167C73.3737 57.4791 73.4774 57.2557 73.6498 57.0916C73.8221 56.9274 74.0503 56.8347 74.2883 56.8322C74.4031 56.8312 74.5168 56.8537 74.6226 56.8983C74.7284 56.9429 74.824 57.0086 74.9035 57.0914C74.983 57.1742 75.0447 57.2724 75.0849 57.3799C75.1252 57.4874 75.143 57.602 75.1374 57.7167Z" fill="#263238"/>
<path d="M79.1293 57.7167C79.1151 57.9542 79.0114 58.1776 78.8391 58.3417C78.6667 58.5059 78.4386 58.5986 78.2006 58.6011C78.0857 58.6025 77.9717 58.5803 77.8657 58.5359C77.7598 58.4914 77.664 58.4257 77.5844 58.3428C77.5048 58.2599 77.4431 58.1616 77.403 58.0539C77.363 57.9462 77.3454 57.8314 77.3515 57.7167C77.365 57.4788 77.4685 57.2551 77.641 57.0908C77.8134 56.9265 78.042 56.834 78.2802 56.8322C78.395 56.8312 78.5088 56.8537 78.6145 56.8983C78.7203 56.9429 78.8159 57.0086 78.8954 57.0914C78.9749 57.1742 79.0366 57.2724 79.0768 57.3799C79.1171 57.4874 79.1349 57.602 79.1293 57.7167Z" fill="#263238"/>
<path d="M78.5259 21.6876C79.7599 20.4809 79.8254 18.5466 78.6722 17.3673C77.5189 16.188 75.5837 16.2103 74.3497 17.417C73.1157 18.6238 73.0502 20.558 74.2034 21.7373C75.3567 22.9166 77.2919 22.8944 78.5259 21.6876Z" fill="#4CAF4F"/>
<path d="M82.2368 26.5182C81.5022 27.4805 80.5569 28.2618 79.4734 28.802C78.3899 29.3422 77.1971 29.627 75.9864 29.6345C74.8125 29.6444 73.6541 29.3654 72.6134 28.8219C71.5728 28.2784 70.6818 27.4873 70.0192 26.5182C71.452 25.0912 73.7192 24.1595 76.2311 24.1595C78.7431 24.1595 80.9307 25.0912 82.2368 26.5182Z" fill="#4CAF4F"/>
<path opacity="0.1" d="M78.5259 21.6876C79.7599 20.4809 79.8254 18.5466 78.6722 17.3673C77.5189 16.188 75.5837 16.2103 74.3497 17.417C73.1157 18.6238 73.0502 20.558 74.2034 21.7373C75.3567 22.9166 77.2919 22.8944 78.5259 21.6876Z" fill="white"/>
<path opacity="0.1" d="M82.2368 26.5182C81.5022 27.4805 80.5569 28.2618 79.4734 28.802C78.3899 29.3422 77.1971 29.627 75.9864 29.6345C74.8125 29.6444 73.6541 29.3654 72.6134 28.8219C71.5728 28.2784 70.6818 27.4873 70.0192 26.5182C71.452 25.0912 73.7192 24.1595 76.2311 24.1595C78.7431 24.1595 80.9307 25.0912 82.2368 26.5182Z" fill="white"/>
<path d="M38.859 46.8641C38.5789 47.4773 38.284 48.1525 38.0275 48.807C37.771 49.4615 37.5087 50.1367 37.2816 50.8089C36.8181 52.1336 36.4651 53.4945 36.2262 54.8775L36.1613 55.3109C36.1551 55.3852 36.1621 55.4601 36.1819 55.532C36.2515 55.7763 36.3611 56.0075 36.5062 56.216C36.8849 56.7557 37.3241 57.2503 37.8153 57.6901C38.3332 58.1718 38.8764 58.6255 39.4427 59.0493C40.0088 59.4856 40.6043 59.9101 41.191 60.3111L40.6397 61.3459C39.2388 60.7355 37.909 59.9733 36.6743 59.0728C36.0156 58.5924 35.4211 58.0297 34.9053 57.3982C34.5996 57.0224 34.3612 56.5964 34.2007 56.1393C34.1074 55.8538 34.0596 55.5553 34.0592 55.2548C34.0592 55.1841 34.0592 55.0809 34.0592 55.0308V54.8863L34.0887 54.5915C34.2577 53.0554 34.5807 51.5403 35.0528 50.0688C35.2827 49.3436 35.5274 48.6212 35.8075 47.9166C36.0876 47.212 36.3765 46.5221 36.7333 45.8057L38.859 46.8641Z" fill="#E58A7B"/>
<path d="M40.7753 60.1283L42.8597 59.0728L42.3202 61.3607C42.3202 61.3607 40.8903 61.7617 40.227 61.0659L40.7753 60.1283Z" fill="#E58A7B"/>
<path d="M44.7673 59.4473L44.213 61.3401L42.3202 61.3607L42.8598 59.0728L44.7673 59.4473Z" fill="#E58A7B"/>
<path d="M47.7097 35.8258C47.8211 36.2344 47.9763 36.6298 48.1725 37.0051C48.1152 37.0701 48.0414 37.1184 47.9589 37.1449C47.8763 37.1713 47.7882 37.175 47.7038 37.1555L47.7097 35.8258Z" fill="#DF5753"/>
<path d="M47.6477 35.8435C47.7699 35.8435 47.8689 35.6917 47.8689 35.5044C47.8689 35.3172 47.7699 35.1654 47.6477 35.1654C47.5256 35.1654 47.4266 35.3172 47.4266 35.5044C47.4266 35.6917 47.5256 35.8435 47.6477 35.8435Z" fill="#263238"/>
<path d="M47.5829 35.1772L48.031 35.0504C48.031 35.0504 47.8129 35.3983 47.5829 35.1772Z" fill="#263238"/>
<path d="M41.9517 37.9898C42.22 39.3607 42.4883 41.8756 41.5272 42.7925C41.5272 42.7925 41.9045 44.1841 44.4548 44.1841C47.2586 44.1841 45.7933 42.7925 45.7933 42.7925C44.2631 42.4269 44.3015 41.2919 44.5698 40.2246L41.9517 37.9898Z" fill="#E58A7B"/>
<path d="M41.2058 34.8647C41.3473 37.1555 41.3591 38.1284 42.5148 39.3047C44.2572 41.0737 47.0404 40.4015 47.5858 38.1254C48.0782 36.0617 47.7657 32.6653 45.522 31.7543C45.0295 31.5514 44.4934 31.4775 43.9644 31.5396C43.4354 31.6017 42.931 31.7977 42.4989 32.1091C42.0668 32.4205 41.7212 32.837 41.4949 33.3192C41.2687 33.8013 41.1691 34.3333 41.2058 34.8647Z" fill="#E58A7B"/>
<path d="M41.4328 32.2879C40.283 32.7065 38.7499 32.394 39.3513 35.9408C39.9882 39.6969 39.0093 40.9322 39.0093 40.9322C39.0093 40.9322 43.3698 41.8609 47.8217 40.8762C47.8217 40.8762 46.4625 38.4999 46.8429 36.7486C47.3293 34.5374 46.9461 33.7207 46.9461 33.7207C46.9461 33.7207 43.0485 31.6982 41.4328 32.2879Z" fill="#263238"/>
<path d="M46.2974 36.0587C46.2986 36.4943 46.4234 36.9206 46.6571 37.2881C46.9696 37.7658 47.3382 37.583 47.4296 37.0759C47.5121 36.6307 47.4502 35.8435 47.0522 35.5369C46.6542 35.2303 46.3033 35.531 46.2974 36.0587Z" fill="#E58A7B"/>
<path d="M40.4333 32.6741C40.1031 31.7454 41.6775 30.3155 45.009 30.9052C48.3406 31.4948 48.485 34.2691 48.485 34.2691L47.8128 33.4672L47.8423 34.3104L44.4194 34.9679L40.4333 32.6741Z" fill="#263238"/>
<path d="M40.7164 42.9488C40.6967 42.8142 40.7304 42.6772 40.8103 42.5671C40.8901 42.4569 41.0098 42.3823 41.1439 42.3592C42.1817 42.1882 44.5403 41.8403 45.7255 42.0054C46.61 42.1292 46.8399 42.6422 46.8782 43.0638C46.8842 43.1376 46.8744 43.2119 46.8493 43.2816C46.8242 43.3512 46.7845 43.4148 46.7328 43.4678C46.6812 43.5209 46.6187 43.5623 46.5497 43.5892C46.4807 43.6161 46.4068 43.628 46.3328 43.624L41.2087 43.394C41.0879 43.3879 40.973 43.3403 40.8832 43.2591C40.7935 43.178 40.7346 43.0684 40.7164 42.9488Z" fill="#4CAF4F"/>
<path opacity="0.6" d="M40.7164 42.9488C40.6967 42.8142 40.7304 42.6772 40.8103 42.5671C40.8901 42.4569 41.0098 42.3823 41.1439 42.3592C42.1817 42.1882 44.5403 41.8403 45.7255 42.0054C46.61 42.1292 46.8399 42.6422 46.8782 43.0638C46.8842 43.1376 46.8744 43.2119 46.8493 43.2816C46.8242 43.3512 46.7845 43.4148 46.7328 43.4678C46.6812 43.5209 46.6187 43.5623 46.5497 43.5892C46.4807 43.6161 46.4068 43.628 46.3328 43.624L41.2087 43.394C41.0879 43.3879 40.973 43.3403 40.8832 43.2591C40.7935 43.178 40.7346 43.0684 40.7164 42.9488Z" fill="black"/>
<path d="M43.6794 94.4549L45.581 95.7757L48.7622 91.4624L46.8606 90.1446L43.6794 94.4549Z" fill="#E58A7B"/>
<path d="M39.2452 94.3694L41.2529 95.5134L44.0685 90.9524L42.0608 89.8085L39.2452 94.3694Z" fill="#E58A7B"/>
<path d="M48.7592 91.4624L47.12 93.6854L45.2184 92.3676L46.8576 90.1446L48.7592 91.4624Z" fill="#CF6F64"/>
<path d="M42.0578 89.8085L44.0686 90.9553L42.618 93.3051L40.6073 92.1582L42.0578 89.8085Z" fill="#CF6F64"/>
<path d="M45.2832 57.3481C45.2832 57.3481 52.707 66.7029 51.3124 75.6509C50.1891 82.8771 43.6735 92.6624 43.6735 92.6624L40.6102 91.1411C42.7694 86.8146 44.612 82.3372 46.1235 77.7442C46.5896 76.3182 46.7256 74.805 46.5213 73.3187C46.3171 71.8325 45.7778 70.4121 44.9442 69.1647C41.1822 63.6721 35.156 66.9418 39.2098 57.3481H45.2832Z" fill="#4CAF4F"/>
<path opacity="0.6" d="M45.2832 57.3481C45.2832 57.3481 52.707 66.7029 51.3124 75.6509C50.1891 82.8771 43.6735 92.6624 43.6735 92.6624L40.6102 91.1411C42.7694 86.8146 44.612 82.3372 46.1235 77.7442C46.5896 76.3182 46.7256 74.805 46.5213 73.3187C46.3171 71.8325 45.7778 70.4121 44.9442 69.1647C41.1822 63.6721 35.156 66.9418 39.2098 57.3481H45.2832Z" fill="black"/>
<path opacity="0.4" d="M48.9243 63.3566L47.8453 62.2835C47.8453 62.369 49.9356 75.2735 50.5223 78.8999C50.8685 77.8405 51.1336 76.7564 51.3154 75.6568C52.0053 71.2668 50.5636 66.7825 48.9243 63.3566Z" fill="black"/>
<path d="M48.5971 57.3481C48.5971 57.3481 57.5362 69.1058 57.7898 76.1551C57.9991 82.0516 48.0605 93.4761 48.0605 93.4761L45.1712 91.6069C45.1712 91.6069 50.9881 83.4933 52.4534 76.8656C51.8873 70.2969 39.9174 57.3481 39.9174 57.3481H48.5971Z" fill="#4CAF4F"/>
<path opacity="0.6" d="M48.5971 57.3481C48.5971 57.3481 57.5362 69.1058 57.7898 76.1551C57.9991 82.0516 48.0605 93.4761 48.0605 93.4761L45.1712 91.6069C45.1712 91.6069 50.9881 83.4933 52.4534 76.8656C51.8873 70.2969 39.9174 57.3481 39.9174 57.3481H48.5971Z" fill="black"/>
<path d="M37.5382 43.3173C36.5829 43.5443 35.666 47.0174 35.666 47.0174L39.4015 49.5116C39.4015 49.5116 40.6456 46.7638 40.2093 45.561C39.7582 44.3079 38.7381 43.0313 37.5382 43.3173Z" fill="#4CAF4F"/>
<path opacity="0.2" d="M38.2693 45.5551L38.0099 48.5829L39.3985 49.5146C39.7819 48.6514 40.0658 47.7473 40.2447 46.8199L38.2693 45.5551Z" fill="black"/>
<path d="M49.7027 43.3851C49.7027 43.3851 50.8053 43.7714 48.5971 57.3451H39.2039C39.3631 53.5124 39.3661 51.1538 37.5381 43.3173C38.8534 43.0463 40.1865 42.8709 41.5271 42.7925C42.9474 42.6907 44.373 42.6907 45.7933 42.7925C47.6271 42.9606 49.7027 43.3851 49.7027 43.3851Z" fill="#4CAF4F"/>
<path d="M50.6579 45.555C50.8702 46.1447 51.0942 46.7786 51.3301 47.3889C51.566 47.9991 51.79 48.6271 52.0288 49.2463L52.7512 51.0978L52.9339 51.5606L53.0283 51.7906L53.0725 51.9056C53.0725 51.9262 53.0725 51.9262 53.0725 51.9233C53.0186 51.8473 52.948 51.7848 52.8661 51.7405C52.7495 51.6719 52.618 51.6324 52.4829 51.6255C52.3706 51.622 52.2589 51.6431 52.1556 51.6874C52.02 51.7493 52.02 51.7759 52.0229 51.7729C52.0474 51.7533 52.0693 51.7305 52.0878 51.7051C52.251 51.4908 52.3922 51.2607 52.5094 51.0182C52.648 50.7469 52.7806 50.458 52.9133 50.1661C53.1728 49.5765 53.4116 48.9662 53.6504 48.35C53.8892 47.7338 54.1162 47.1117 54.3373 46.4837L55.0095 44.6028L56.1446 44.8976C55.9205 46.242 55.6316 47.551 55.2837 48.8836C55.1157 49.547 54.9181 50.2044 54.6941 50.8678C54.582 51.201 54.4582 51.5312 54.3167 51.8702C54.1692 52.2382 53.9876 52.5916 53.7742 52.9257C53.6958 53.0382 53.6091 53.1446 53.5148 53.2441C53.3642 53.4067 53.1815 53.5362 52.9782 53.6244C52.7978 53.7019 52.6024 53.7381 52.4062 53.7306C52.1865 53.7224 51.9724 53.6585 51.7841 53.5448C51.562 53.4062 51.3777 53.2148 51.2475 52.9876C51.2033 52.911 51.165 52.8343 51.1385 52.7783L51.0824 52.6662L50.9704 52.4363L50.7463 51.9793C50.4515 51.3661 50.1567 50.7469 49.9002 50.1248C49.6437 49.5028 49.3725 48.8718 49.1189 48.238C48.8654 47.6041 48.6383 46.9702 48.4231 46.2862L50.6579 45.555Z" fill="#E58A7B"/>
<path d="M49.7027 43.3852C50.8319 43.6534 52.1026 46.9909 52.1026 46.9909L48.7445 49.8477C48.7445 49.8477 46.5716 46.2096 47.0109 45.0096C47.4679 43.7596 48.2285 43.0343 49.7027 43.3852Z" fill="#4CAF4F"/>
<path d="M55.5432 43.5473L56.7225 42.5626L57.5421 43.8392L56.9377 44.9035C56.9377 44.9035 55.9766 45.788 55.1275 45.3369C54.9927 45.034 54.9604 44.6954 55.0354 44.3724C55.1104 44.0495 55.2887 43.7598 55.5432 43.5473Z" fill="#E58A7B"/>
<path d="M58.8511 42.5655L58.7627 42.8869L56.8964 43.1994L56.7136 42.5626L58.8511 42.5655Z" fill="#E58A7B"/>
<path d="M48.2905 93.6265L44.9235 91.4507L45.5279 90.4011L49.3106 92.7272L48.2905 93.6265Z" fill="#4CAF4F"/>
<path d="M42.5708 95.3601C42.2754 95.324 41.9916 95.2233 41.7394 95.0652C41.729 95.0616 41.72 95.0548 41.7136 95.0459C41.7072 95.0369 41.7038 95.0261 41.7038 95.0151C41.7038 95.0041 41.7072 94.9933 41.7136 94.9844C41.72 94.9754 41.729 94.9686 41.7394 94.965C41.8308 94.9355 42.6239 94.6908 42.8539 94.8795C42.8797 94.901 42.8994 94.929 42.9108 94.9606C42.9222 94.9922 42.9249 95.0263 42.9187 95.0593C42.9146 95.1124 42.897 95.1636 42.8676 95.2079C42.8382 95.2523 42.798 95.2884 42.7507 95.3129C42.6955 95.343 42.6337 95.3592 42.5708 95.3601ZM41.9075 95.0357C42.276 95.2244 42.5708 95.2922 42.7123 95.2215C42.7432 95.2044 42.7691 95.1797 42.7877 95.1498C42.8063 95.1199 42.8169 95.0857 42.8185 95.0505C42.8185 95.0033 42.8185 94.9827 42.792 94.9709C42.6681 94.8706 42.2259 94.9473 41.9016 95.0357H41.9075Z" fill="#263238"/>
<path d="M41.76 95.0858C41.7445 95.0856 41.7297 95.0793 41.7188 95.0682C41.7144 95.06 41.7121 95.0509 41.7121 95.0416C41.7121 95.0324 41.7144 95.0232 41.7188 95.0151C41.7188 94.9886 41.9104 94.3488 42.2111 94.2043C42.2495 94.1868 42.2913 94.1777 42.3335 94.1777C42.3757 94.1777 42.4174 94.1868 42.4558 94.2043C42.4972 94.2174 42.5331 94.2439 42.5577 94.2797C42.5822 94.3155 42.5941 94.3585 42.5915 94.4019C42.5708 94.6672 42.0313 95.0328 41.7836 95.0947L41.76 95.0858ZM42.332 94.281C42.3033 94.2819 42.2752 94.2889 42.2495 94.3016C42.0667 94.3901 41.9163 94.735 41.8426 94.9443C42.102 94.8352 42.4588 94.5463 42.4706 94.3842C42.4706 94.3576 42.4706 94.3252 42.4028 94.2957C42.3807 94.2839 42.3568 94.2759 42.332 94.2721V94.281Z" fill="#263238"/>
<path d="M46.778 96.6337C46.4449 96.6337 45.982 96.2062 45.7284 95.9438C45.7219 95.9348 45.7185 95.9239 45.7185 95.9128C45.7185 95.9017 45.7219 95.8909 45.7284 95.8819C45.7342 95.8724 45.7425 95.8646 45.7524 95.8594C45.7622 95.8542 45.7733 95.8518 45.7844 95.8524C45.9024 95.8524 46.9254 96.0057 47.0699 96.2946C47.0852 96.3205 47.0933 96.35 47.0933 96.3801C47.0933 96.4102 47.0852 96.4397 47.0699 96.4656C47.0482 96.5106 47.0155 96.5494 46.9747 96.5782C46.934 96.6071 46.8866 96.6252 46.837 96.6307L46.778 96.6337ZM45.923 95.985C46.2945 96.3447 46.6217 96.5452 46.8075 96.5216C46.84 96.5174 46.871 96.5052 46.8977 96.4862C46.9245 96.4672 46.9461 96.4419 46.9608 96.4125C46.9674 96.4025 46.9709 96.3907 46.9709 96.3786C46.9709 96.3666 46.9674 96.3548 46.9608 96.3447C46.8841 96.1855 46.3387 96.0499 45.923 95.985Z" fill="#263238"/>
<path d="M45.9554 95.9703C45.8893 95.9722 45.8231 95.9672 45.7579 95.9556C45.7488 95.9542 45.7402 95.9505 45.733 95.9448C45.7257 95.9391 45.7201 95.9317 45.7166 95.9231C45.7122 95.9145 45.7099 95.9049 45.7099 95.8951C45.7099 95.8854 45.7122 95.8758 45.7166 95.8671C45.7343 95.8465 46.1323 95.3659 46.5097 95.3335C46.6165 95.3252 46.7224 95.359 46.8045 95.4278C46.9195 95.5281 46.9136 95.6165 46.8842 95.6725C46.8104 95.873 46.3004 95.9703 45.9554 95.9703ZM45.8788 95.8612C46.209 95.8789 46.7367 95.7698 46.8045 95.6254C46.8045 95.6254 46.8281 95.5782 46.7515 95.5133C46.721 95.4868 46.6853 95.4668 46.6468 95.4547C46.6082 95.4425 46.5676 95.4384 46.5274 95.4426C46.2732 95.5135 46.0468 95.6607 45.8788 95.8642V95.8612Z" fill="#263238"/>
<path d="M41.8397 94.7674L39.3395 94.0599C39.2964 94.0468 39.25 94.0501 39.2092 94.0692C39.1684 94.0882 39.1361 94.1216 39.1184 94.163L38.2752 96.0588C38.2554 96.1073 38.2461 96.1595 38.2479 96.2119C38.2498 96.2643 38.2626 96.3158 38.2858 96.3628C38.3089 96.4099 38.3417 96.4515 38.382 96.485C38.4224 96.5185 38.4694 96.543 38.5199 96.557C39.4044 96.787 39.8289 96.8519 40.9286 97.1673C41.6067 97.356 42.5738 97.7069 43.5084 97.9722C44.443 98.2375 44.7555 97.3265 44.3929 97.1319C42.7536 96.2652 42.6239 95.6578 42.1758 95.0092C42.0955 94.8917 41.9766 94.8062 41.8397 94.7674Z" fill="#4CAF4F"/>
<path d="M45.7962 95.5988L43.6617 94.1247C43.6255 94.0983 43.5809 94.0862 43.5363 94.0905C43.4918 94.0949 43.4503 94.1154 43.4199 94.1483L42.0048 95.6696C41.9703 95.7089 41.9445 95.7551 41.9293 95.8051C41.9141 95.8552 41.9096 95.9079 41.9163 95.9598C41.923 96.0116 41.9407 96.0615 41.9681 96.106C41.9956 96.1505 42.0322 96.1887 42.0755 96.218C42.8273 96.7221 43.2165 96.9256 44.157 97.5771C44.7466 97.9781 45.8876 98.8684 46.6836 99.4227C47.4797 99.977 48.0723 99.2163 47.7892 98.9156C46.5215 97.5624 46.2444 96.7133 46.035 95.9438C45.9987 95.8042 45.9141 95.682 45.7962 95.5988Z" fill="#4CAF4F"/>
<path d="M44.0656 92.8569L40.2181 90.9435L40.6161 89.8998L44.726 91.9165L44.0656 92.8569Z" fill="#4CAF4F"/>
<path d="M39.0624 56.7938L38.7381 57.6429C38.7056 57.7078 38.7823 57.7756 38.8914 57.7756H48.6442C48.7297 57.7756 48.8005 57.7343 48.8064 57.6813L48.8889 56.8381C48.8889 56.7821 48.8211 56.7319 48.7297 56.7319H39.2157C39.1871 56.7292 39.1582 56.7335 39.1315 56.7442C39.1048 56.755 39.0811 56.772 39.0624 56.7938Z" fill="#4CAF4F"/>
<path opacity="0.4" d="M39.0624 56.7938L38.7381 57.6429C38.7056 57.7078 38.7823 57.7756 38.8914 57.7756H48.6442C48.7297 57.7756 48.8005 57.7343 48.8064 57.6813L48.8889 56.8381C48.8889 56.7821 48.8211 56.7319 48.7297 56.7319H39.2157C39.1871 56.7292 39.1582 56.7335 39.1315 56.7442C39.1048 56.755 39.0811 56.772 39.0624 56.7938Z" fill="white"/>
<path d="M40.5984 57.8581H40.3419C40.2918 57.8581 40.2535 57.8316 40.2564 57.7992L40.3773 56.7054C40.3773 56.6759 40.4245 56.6494 40.4746 56.6494H40.7311C40.7812 56.6494 40.8196 56.6759 40.8166 56.7054L40.6957 57.7992C40.6928 57.8316 40.6486 57.8581 40.5984 57.8581Z" fill="#4CAF4F"/>
<path d="M46.6129 57.8581H46.3594C46.3092 57.8581 46.2709 57.8316 46.2739 57.7992L46.3918 56.7054C46.3918 56.6759 46.4419 56.6494 46.492 56.6494H46.7456C46.7957 56.6494 46.837 56.6759 46.8311 56.7054L46.7131 57.7992C46.6984 57.8316 46.666 57.8581 46.6129 57.8581Z" fill="#4CAF4F"/>
<g style="mix-blend-mode:multiply">
<path d="M40.3744 107.787C44.7365 107.787 48.2728 107.531 48.2728 107.215C48.2728 106.899 44.7365 106.643 40.3744 106.643C36.0122 106.643 32.476 106.899 32.476 107.215C32.476 107.531 36.0122 107.787 40.3744 107.787Z" fill="#F5F5F5"/>
</g>
<path d="M45.1859 106.407C43.7885 106 42.2377 105.478 41.3001 104.933C41.2736 104.915 41.2441 104.907 41.2176 104.892V98.5648H44.045C44.2596 98.5521 44.4613 98.4579 44.6087 98.3014C44.7562 98.1449 44.8383 97.9381 44.8383 97.7231C44.8383 97.5081 44.7562 97.3012 44.6087 97.1447C44.4613 96.9883 44.2596 96.894 44.045 96.8813H41.2323V68.0414H39.5341V96.8813H36.7244C36.6097 96.8745 36.4948 96.8913 36.3868 96.9305C36.2787 96.9697 36.1799 97.0306 36.0962 97.1095C36.0126 97.1883 35.946 97.2834 35.9004 97.3889C35.8549 97.4944 35.8314 97.6081 35.8314 97.7231C35.8314 97.838 35.8549 97.9517 35.9004 98.0572C35.946 98.1627 36.0126 98.2578 36.0962 98.3367C36.1799 98.4155 36.2787 98.4764 36.3868 98.5156C36.4948 98.5549 36.6097 98.5716 36.7244 98.5648H39.5341V104.883C39.5076 104.883 39.4811 104.906 39.4545 104.924C38.5022 105.478 36.9632 106 35.5658 106.398C35.4714 106.427 35.3903 106.488 35.3373 106.571C35.2842 106.655 35.2627 106.754 35.2766 106.852C35.2905 106.949 35.3389 107.039 35.413 107.104C35.4872 107.169 35.5821 107.205 35.6807 107.206H45.071C45.1652 107.2 45.2544 107.161 45.3236 107.097C45.3929 107.033 45.438 106.947 45.4514 106.853C45.4649 106.76 45.4459 106.664 45.3976 106.583C45.3492 106.502 45.2745 106.44 45.1859 106.407Z" fill="#E0E0E0"/>
<path d="M45.6193 65.105H35.1353C34.2919 65.105 33.6081 65.7887 33.6081 66.6322V69.7485C33.6081 70.5919 34.2919 71.2757 35.1353 71.2757H45.6193C46.4628 71.2757 47.1465 70.5919 47.1465 69.7485V66.6322C47.1465 65.7887 46.4628 65.105 45.6193 65.105Z" fill="#4CAF4F"/>
<path d="M35.038 71.2786V71.8152C35.038 72.2575 35.5186 72.6171 36.1082 72.6171H44.6582C45.2478 72.6171 45.7284 72.2575 45.7284 71.8152V71.2786H35.038Z" fill="#4CAF4F"/>
<path opacity="0.3" d="M35.038 71.2786V71.8152C35.038 72.2575 35.5186 72.6171 36.1082 72.6171H44.6582C45.2478 72.6171 45.7284 72.2575 45.7284 71.8152V71.2786H35.038Z" fill="white"/>
</svg>
