<svg width="20" height="17" viewBox="0 0 20 17" fill="none" xmlns="http://www.w3.org/2000/svg">
<g clip-path="url(#clip0_1_1002)">
<path d="M19.2992 7.26089C19.3011 7.24697 19.3011 7.2329 19.2992 7.21898C19.301 7.20763 19.301 7.19606 19.2992 7.1847L19.1632 6.20558C19.1435 6.08844 19.0911 5.97896 19.0116 5.88937L18.9883 5.8627L18.9456 5.82079L16.5906 3.83209L16.6567 3.89686C16.6026 3.83347 16.5348 3.78276 16.4581 3.74847C16.3814 3.71419 16.2979 3.6972 16.2137 3.69875H15.4986C15.3823 3.6965 15.2687 3.73274 15.1761 3.80162C15.0788 3.73315 14.9616 3.6971 14.8419 3.69875H14.1268C14.033 3.69726 13.9405 3.72008 13.8586 3.7649C13.7768 3.80973 13.7084 3.87496 13.6605 3.95401C13.5867 4.0669 13.5589 4.20293 13.5828 4.33499L13.6722 4.95217C13.6129 4.91926 13.5459 4.90218 13.4779 4.90264H10.0154C9.89114 4.90341 9.76977 4.93911 9.66561 5.0055C9.5649 5.06731 9.48405 5.1558 9.43246 5.26076L9.16431 5.03598C9.05878 4.94025 8.91947 4.88836 8.77571 4.89121H3.34298C3.21831 4.89344 3.09641 4.92758 2.98936 4.99027C2.84291 5.07431 2.73557 5.21095 2.69013 5.37124L0.964714 11.0288C0.932475 11.122 0.929303 11.2225 0.955606 11.3175C0.981908 11.4125 1.03649 11.4977 1.11239 11.5621C1.13216 11.5786 1.15293 11.5938 1.17456 11.6078C1.17456 11.6078 1.13958 11.585 1.12015 11.5659L3.47512 13.5585C3.57474 13.6484 3.70499 13.6986 3.84039 13.6994H9.31588C9.44092 13.6962 9.56291 13.6607 9.66951 13.5965C9.7298 13.5642 9.78374 13.5217 9.82883 13.4708L9.84827 13.4441L9.87936 13.4061L9.90267 13.3641L10.1592 13.5813C10.2573 13.6676 10.3848 13.7152 10.5167 13.7146H16.0038C16.1287 13.7106 16.2505 13.6752 16.3574 13.6118C16.4164 13.5775 16.47 13.5352 16.5168 13.4861L16.5362 13.4594L16.5673 13.4213C16.5838 13.3972 16.5981 13.3717 16.61 13.3451C16.6227 13.322 16.6331 13.2978 16.6411 13.2727L18.215 8.10667V8.06095C18.2169 8.04322 18.2169 8.02534 18.215 8.00761V7.97333C18.2168 7.96196 18.2168 7.95039 18.215 7.93903C18.2167 7.91494 18.2167 7.89075 18.215 7.86664H18.7202C18.7641 7.87059 18.8083 7.87059 18.8523 7.86664H18.8873C18.9157 7.85832 18.9431 7.8468 18.9689 7.83236H19.0077L19.0777 7.77902L19.1088 7.75616L19.1632 7.68757V7.66474L19.202 7.59996C19.1999 7.58736 19.1999 7.57447 19.202 7.56187C19.2 7.55569 19.2 7.549 19.202 7.54282C19.2103 7.52048 19.2168 7.49755 19.2215 7.47423C19.2197 7.46672 19.2197 7.45888 19.2215 7.45137C19.2196 7.44003 19.2196 7.42844 19.2215 7.41709C19.2215 7.41709 19.2992 7.26851 19.2992 7.26089Z" fill="black"/>
<path d="M8.93501 5.32549C8.95565 5.34378 8.97006 5.36783 8.9763 5.3944C8.98258 5.42097 8.98036 5.44877 8.97001 5.47407L7.24848 11.1278C7.2268 11.1895 7.18245 11.2411 7.12412 11.2726C7.07666 11.3037 7.02173 11.3221 6.96478 11.3259H1.49321C1.44648 11.3237 1.40221 11.3047 1.36885 11.2726C1.34901 11.2546 1.33508 11.2312 1.32885 11.2054C1.32262 11.1796 1.32437 11.1526 1.33388 11.1278L3.05929 5.47407C3.07917 5.41157 3.12213 5.35858 3.17976 5.32549C3.228 5.2966 3.28268 5.27961 3.33909 5.27596H8.81066C8.85702 5.2764 8.90148 5.29411 8.93501 5.32549ZM6.07875 9.98866L7.10857 6.61319H4.22512L3.19918 9.98866H6.07875ZM14.1579 5.38264C14.1766 5.40391 14.1999 5.42077 14.2261 5.43199C14.2524 5.4432 14.2808 5.44847 14.3095 5.4474H15.0206C15.0477 5.44766 15.0744 5.44115 15.0982 5.42849C15.122 5.41582 15.1421 5.39742 15.1566 5.37502C15.1692 5.35752 15.1782 5.33771 15.1828 5.31677C15.1875 5.29583 15.1878 5.27418 15.1838 5.25311L15.0439 4.24733C15.0306 4.20078 15.0067 4.15779 14.974 4.1216C14.9553 4.10033 14.932 4.08347 14.9057 4.07225C14.8795 4.06104 14.851 4.05577 14.8224 4.05684H14.1113C14.0842 4.05658 14.0575 4.06309 14.0337 4.07576C14.0099 4.08842 13.9898 4.10682 13.9753 4.12923C13.948 4.18256 13.9364 4.21685 13.948 4.24733L14.0918 5.25311C14.0992 5.30208 14.1224 5.34746 14.1579 5.38264ZM16.4157 4.23971C16.4024 4.19316 16.3784 4.15017 16.3458 4.11398C16.3279 4.09279 16.3052 4.07593 16.2796 4.0647C16.254 4.05347 16.2261 4.04817 16.1981 4.04922H15.483C15.4564 4.04847 15.4301 4.05481 15.4068 4.06755C15.3835 4.08029 15.3642 4.09897 15.3509 4.1216C15.3251 4.1554 15.3139 4.19786 15.3198 4.23971L15.4636 5.24549C15.4726 5.29394 15.4955 5.33888 15.5297 5.37502C15.5487 5.39587 15.5721 5.41246 15.5982 5.42363C15.6244 5.43481 15.6527 5.44032 15.6812 5.43978H16.3963C16.4228 5.44013 16.449 5.43362 16.4722 5.42092C16.4954 5.40821 16.5148 5.38976 16.5284 5.3674C16.5419 5.35036 16.5514 5.33055 16.5561 5.30946C16.5608 5.28837 16.5606 5.26651 16.5556 5.24549L16.4157 4.23971ZM13.5322 5.76362L13.4623 5.26834H10.0154C9.96123 5.27127 9.90887 5.28837 9.86378 5.31787C9.83517 5.33317 9.81025 5.35438 9.79079 5.38003C9.77136 5.40569 9.75781 5.43517 9.75111 5.46645L9.46353 6.41127C9.45205 6.43488 9.44812 6.46138 9.45228 6.48722C9.45646 6.51306 9.4685 6.53705 9.48684 6.55605C9.51961 6.58625 9.56238 6.60385 9.60732 6.60558H13.7965L12.7667 9.98105H8.58916C8.53529 9.98225 8.48283 9.99807 8.43762 10.0267C8.38266 10.061 8.34251 10.1139 8.32491 10.1753L8.03346 11.1202C8.02395 11.1444 8.02145 11.1707 8.02624 11.1963C8.03106 11.2219 8.04295 11.2456 8.06065 11.2649C8.0924 11.2971 8.1355 11.3162 8.18112 11.3183H13.6682C13.725 11.3135 13.7797 11.2952 13.8276 11.2649C13.8849 11.2333 13.928 11.1816 13.948 11.1202L15.5258 5.95411H13.7499C13.7217 5.95465 13.6937 5.94952 13.6676 5.93904C13.6416 5.92855 13.618 5.91293 13.5983 5.89315C13.5662 5.8586 13.5435 5.81667 13.5322 5.77124V5.76362Z" fill="white"/>
</g>
<defs>
<clipPath id="clip0_1_1002">
<rect width="18.3627" height="10.016" fill="white" transform="translate(0.937965 3.69865)"/>
</clipPath>
</defs>
</svg>
