<svg width="20" height="17" viewBox="0 0 20 17" fill="none" xmlns="http://www.w3.org/2000/svg">
<g clip-path="url(#clip0_1_1030)">
<path d="M19.025 7.26089C19.0269 7.24697 19.0269 7.2329 19.025 7.21898C19.0268 7.20763 19.0268 7.19606 19.025 7.1847L18.889 6.20558C18.8694 6.08844 18.8169 5.97896 18.7374 5.88937L18.7141 5.8627L18.6714 5.82079L16.3164 3.83209L16.3825 3.89686C16.3284 3.83347 16.2606 3.78276 16.1839 3.74847C16.1073 3.71419 16.0237 3.6972 15.9395 3.69875H15.2244C15.1082 3.6965 14.9945 3.73274 14.9019 3.80162C14.8046 3.73315 14.6875 3.6971 14.5677 3.69875H13.8526C13.7589 3.69726 13.6664 3.72008 13.5845 3.7649C13.5026 3.80973 13.4342 3.87496 13.3863 3.95401C13.3125 4.0669 13.2847 4.20293 13.3086 4.33499L13.398 4.95217C13.3388 4.91926 13.2717 4.90218 13.2037 4.90264H9.74119C9.61696 4.90341 9.49559 4.93911 9.39143 5.0055C9.29072 5.06731 9.20987 5.1558 9.15828 5.26076L8.89013 5.03598C8.7846 4.94025 8.6453 4.88836 8.50153 4.89121H3.06881C2.94414 4.89344 2.82224 4.92758 2.71519 4.99027C2.56873 5.07431 2.4614 5.21095 2.41595 5.37124L0.690536 11.0288C0.658297 11.122 0.655126 11.2225 0.681428 11.3175C0.70773 11.4125 0.762315 11.4977 0.838208 11.5621C0.857984 11.5786 0.878748 11.5938 0.900387 11.6078C0.900387 11.6078 0.865407 11.585 0.845976 11.5659L3.20094 13.5585C3.30056 13.6484 3.43081 13.6986 3.56621 13.6994H9.0417C9.16675 13.6962 9.28873 13.6607 9.39534 13.5965C9.45563 13.5642 9.50957 13.5217 9.55466 13.4708L9.57409 13.4441L9.60518 13.4061L9.62849 13.3641L9.88498 13.5813C9.98317 13.6676 10.1106 13.7152 10.2425 13.7146H15.7296C15.8545 13.7106 15.9763 13.6752 16.0832 13.6118C16.1422 13.5775 16.1958 13.5352 16.2426 13.4861L16.262 13.4594L16.2931 13.4213C16.3096 13.3972 16.3239 13.3717 16.3358 13.3451C16.3485 13.322 16.3589 13.2978 16.3669 13.2727L17.9408 8.10667V8.06095C17.9427 8.04322 17.9427 8.02534 17.9408 8.00761V7.97333C17.9427 7.96196 17.9427 7.95039 17.9408 7.93903C17.9425 7.91494 17.9425 7.89075 17.9408 7.86664H18.446C18.4899 7.87059 18.5341 7.87059 18.5781 7.86664H18.6131C18.6415 7.85832 18.6689 7.8468 18.6947 7.83236H18.7336L18.8035 7.77902L18.8346 7.75616L18.889 7.68757V7.66474L18.9279 7.59996C18.9257 7.58736 18.9257 7.57447 18.9279 7.56187C18.9258 7.55569 18.9258 7.549 18.9279 7.54282C18.9361 7.52048 18.9426 7.49755 18.9473 7.47423C18.9455 7.46672 18.9455 7.45888 18.9473 7.45137C18.9454 7.44003 18.9454 7.42844 18.9473 7.41709C18.9473 7.41709 19.025 7.26851 19.025 7.26089Z" fill="black"/>
<path d="M8.6609 5.32549C8.68153 5.34378 8.69594 5.36783 8.70219 5.3944C8.70846 5.42097 8.70624 5.44877 8.69589 5.47407L6.97436 11.1278C6.95269 11.1895 6.90833 11.2411 6.85001 11.2726C6.80255 11.3037 6.74761 11.3221 6.69066 11.3259H1.21909C1.17236 11.3237 1.12809 11.3047 1.09473 11.2726C1.07489 11.2546 1.06096 11.2312 1.05473 11.2054C1.0485 11.1796 1.05026 11.1526 1.05976 11.1278L2.78517 5.47407C2.80506 5.41157 2.84801 5.35858 2.90564 5.32549C2.95389 5.2966 3.00856 5.27961 3.06497 5.27596H8.53654C8.58291 5.2764 8.62736 5.29411 8.6609 5.32549ZM5.80464 9.98866L6.83445 6.61319H3.951L2.92507 9.98866H5.80464ZM13.8838 5.38264C13.9024 5.40391 13.9258 5.42077 13.952 5.43199C13.9783 5.4432 14.0067 5.44847 14.0353 5.4474H14.7465C14.7736 5.44766 14.8002 5.44115 14.8241 5.42849C14.8479 5.41582 14.868 5.39742 14.8825 5.37502C14.8951 5.35752 14.904 5.33771 14.9087 5.31677C14.9134 5.29583 14.9137 5.27418 14.9097 5.25311L14.7698 4.24733C14.7565 4.20078 14.7326 4.15779 14.6999 4.1216C14.6812 4.10033 14.6579 4.08347 14.6316 4.07225C14.6054 4.06104 14.5769 4.05577 14.5483 4.05684H13.8372C13.8101 4.05658 13.7834 4.06309 13.7596 4.07576C13.7358 4.08842 13.7157 4.10682 13.7011 4.12923C13.6739 4.18256 13.6623 4.21685 13.6739 4.24733L13.8177 5.25311C13.8251 5.30208 13.8482 5.34746 13.8838 5.38264ZM16.1416 4.23971C16.1283 4.19316 16.1043 4.15017 16.0716 4.11398C16.0538 4.09279 16.0311 4.07593 16.0055 4.0647C15.9799 4.05347 15.952 4.04817 15.924 4.04922H15.2089C15.1823 4.04847 15.1559 4.05481 15.1327 4.06755C15.1094 4.08029 15.0901 4.09897 15.0768 4.1216C15.051 4.1554 15.0398 4.19786 15.0457 4.23971L15.1895 5.24549C15.1985 5.29394 15.2214 5.33888 15.2556 5.37502C15.2746 5.39587 15.298 5.41246 15.3241 5.42363C15.3503 5.43481 15.3786 5.44032 15.4071 5.43978H16.1222C16.1487 5.44013 16.1749 5.43362 16.1981 5.42092C16.2213 5.40821 16.2407 5.38976 16.2543 5.3674C16.2678 5.35036 16.2772 5.33055 16.282 5.30946C16.2867 5.28837 16.2865 5.26651 16.2815 5.24549L16.1416 4.23971ZM13.2581 5.76362L13.1882 5.26834H9.74123C9.68711 5.27127 9.63476 5.28837 9.58967 5.31787C9.56105 5.33317 9.53613 5.35438 9.51667 5.38003C9.49724 5.40569 9.4837 5.43517 9.47699 5.46645L9.18941 6.41127C9.17793 6.43488 9.17401 6.46138 9.17816 6.48722C9.18235 6.51306 9.19438 6.53705 9.21272 6.55605C9.24549 6.58625 9.28826 6.60385 9.3332 6.60558H13.5224L12.4926 9.98105H8.31504C8.26118 9.98225 8.20872 9.99807 8.1635 10.0267C8.10854 10.061 8.0684 10.1139 8.0508 10.1753L7.75934 11.1202C7.74983 11.1444 7.74733 11.1707 7.75212 11.1963C7.75694 11.2219 7.76883 11.2456 7.78653 11.2649C7.81828 11.2971 7.86138 11.3162 7.90701 11.3183H13.3941C13.4509 11.3135 13.5056 11.2952 13.5534 11.2649C13.6108 11.2333 13.6539 11.1816 13.6739 11.1202L15.2517 5.95411H13.4757C13.4476 5.95465 13.4196 5.94952 13.3935 5.93904C13.3675 5.92855 13.3439 5.91293 13.3242 5.89315C13.2921 5.8586 13.2693 5.81667 13.2581 5.77124V5.76362Z" fill="white"/>
</g>
<defs>
<clipPath id="clip0_1_1030">
<rect width="18.3627" height="10.016" fill="white" transform="translate(0.663788 3.69865)"/>
</clipPath>
</defs>
</svg>
