<svg width="22" height="20" viewBox="0 0 22 20" fill="none" xmlns="http://www.w3.org/2000/svg">
<path d="M21.8404 13.1844C21.8404 16.5034 19.1499 19.194 15.8308 19.194L6.81645 19.194C5.89451 19.194 5.14712 18.4466 5.14712 17.5247L5.14712 6.1732C5.14712 4.32931 6.64189 2.83454 8.48579 2.83454L20.1711 2.83454C21.0931 2.83454 21.8404 3.58193 21.8404 4.50387L21.8404 13.1844Z" fill="#E8F5E9"/>
<path d="M8.14854 3.83615C6.95623 3.83615 5.98557 4.81568 5.98557 6.01308C5.98557 6.77056 6.37454 7.43939 6.96191 7.82925C6.25249 8.06645 5.63864 8.50979 5.18841 9.08977C4.93949 8.8983 4.66135 8.74432 4.36152 8.63398C4.8162 8.29643 5.11332 7.75419 5.11332 7.14476C5.11332 6.12922 4.29198 5.29788 3.2826 5.29788C2.27322 5.29788 1.45188 6.12922 1.45188 7.14476C1.45188 7.75454 1.74925 8.29703 2.20432 8.63458C0.999534 9.07916 0.139091 10.2431 0.139091 11.613V12.5753C0.139215 12.6486 0.168557 12.7189 0.220585 12.7705C0.272611 12.8223 0.34301 12.8512 0.416366 12.8509H4.6381C4.64833 12.852 4.65856 12.8527 4.6688 12.8525H11.6285C11.6388 12.8527 11.6491 12.852 11.6592 12.8509H15.8813C16.033 12.8503 16.156 12.7271 16.1563 12.5753V11.613C16.1563 10.2431 15.2974 9.07916 14.0932 8.63446C14.5483 8.29703 14.8457 7.75441 14.8457 7.14464C14.8457 6.1291 14.0243 5.29775 13.0149 5.29775C12.0056 5.29775 11.1842 6.1291 11.1842 7.14464C11.1842 7.75407 11.4815 8.2964 11.9361 8.63386C11.6357 8.74445 11.3574 8.89893 11.1081 9.09087C10.6581 8.51054 10.0451 8.06659 9.33575 7.82925C9.92296 7.43939 10.3121 6.77056 10.3121 6.01308C10.3121 4.81568 9.34093 3.83615 8.14861 3.83615H8.14854ZM8.14854 4.38849C9.0403 4.38849 9.75918 5.1122 9.75918 6.01308C9.75918 6.90691 9.0515 7.62359 8.16963 7.63508C8.1626 7.63508 8.15569 7.63409 8.14854 7.63409C8.14139 7.63409 8.13461 7.63508 8.12746 7.63508C7.24559 7.62373 6.53838 6.90694 6.53838 6.01308C6.53838 5.11208 7.25667 4.38849 8.14842 4.38849H8.14854ZM3.28263 5.85018C3.99019 5.85018 4.56102 6.42445 4.56102 7.14473C4.56102 7.86018 3.99757 8.43199 3.29668 8.43975C3.29199 8.43975 3.28743 8.43926 3.28262 8.43926C3.27794 8.43926 3.27338 8.43975 3.26857 8.43975C2.56767 8.43198 2.00423 7.86005 2.00423 7.14473C2.00423 6.42449 2.57506 5.85018 3.28261 5.85018H3.28263ZM13.0148 5.85018C13.7223 5.85018 14.2932 6.42445 14.2932 7.14473C14.2932 7.86018 13.7297 8.43199 13.0288 8.43975C13.0241 8.43975 13.0196 8.43926 13.0148 8.43926C13.0101 8.43926 13.0055 8.43975 13.0007 8.43975C12.2998 8.43198 11.7364 7.86005 11.7364 7.14473C11.7364 6.42449 12.3072 5.85018 13.0147 5.85018H13.0148ZM8.1274 8.18738C8.13442 8.1875 8.14133 8.18837 8.14848 8.18837C8.15551 8.18837 8.16241 8.18738 8.16956 8.18738C9.93814 8.19872 11.3535 9.62629 11.3535 11.4133L11.3534 12.3H4.9438V11.4133C4.9438 9.62613 6.35879 8.19874 8.12714 8.18738H8.1274ZM3.26149 8.99272C3.26851 8.99284 3.27542 8.9937 3.28257 8.9937C3.28972 8.9937 3.2965 8.99272 3.30365 8.99272C3.90185 8.99752 4.44777 9.20379 4.88248 9.54887C4.57142 10.0992 4.39153 10.7345 4.39153 11.4135V12.2981H0.691203V11.613C0.691203 10.1606 1.83312 9.00405 3.26142 8.99259L3.26149 8.99272ZM12.9936 8.99272C13.0008 8.99284 13.0076 8.9937 13.0147 8.9937C13.0219 8.9937 13.0286 8.99272 13.0358 8.99272C14.4641 9.00406 15.606 10.1608 15.606 11.6131V12.2981H11.9038L11.9037 11.4135C11.9037 10.7349 11.7243 10.1001 11.4138 9.54985C11.8486 9.20428 12.395 8.99751 12.9937 8.99272H12.9936Z" fill="#103E13"/>
</svg>
