<svg width="23" height="20" viewBox="0 0 23 20" fill="none" xmlns="http://www.w3.org/2000/svg">
<path d="M22.6286 13.1844C22.6286 16.5034 19.938 19.194 16.619 19.194L7.60458 19.194C6.68263 19.194 5.93524 18.4466 5.93524 17.5247L5.93524 6.1732C5.93524 4.32931 7.43002 2.83454 9.27391 2.83454L20.9592 2.83454C21.8812 2.83454 22.6286 3.58193 22.6286 4.50387L22.6286 13.1844Z" fill="#E8F5E9"/>
<path d="M10.3796 8.3917C10.2992 8.3917 10.2246 8.36959 10.1582 8.33404V8.33499C10.1582 8.46147 10.1091 8.58025 10.0199 8.66921C9.93069 8.75841 9.812 8.80757 9.68566 8.80757C9.60409 8.80757 9.5285 8.78492 9.46148 8.74842C9.45472 8.86413 9.40847 8.97228 9.32595 9.05488C9.23676 9.14408 9.11806 9.19324 8.99165 9.19324C8.74049 9.19324 8.53652 8.99581 8.52182 8.74834C8.44411 8.79034 8.35625 8.81237 8.26563 8.80655C8.01855 8.79034 7.82506 8.57687 7.82506 8.32043V6.19482L7.58302 6.61414C7.49083 6.77453 7.31826 6.87411 7.13246 6.87411C7.04193 6.87411 6.95249 6.85035 6.87329 6.80497C6.77465 6.74778 6.70409 6.65599 6.67475 6.54617C6.64526 6.43629 6.66052 6.32137 6.71754 6.22288C6.71762 6.22288 7.50947 4.85162 7.55778 4.76739C7.56352 4.75473 7.57988 4.718 7.59381 4.68669C7.6071 4.6568 7.61851 4.62612 7.62944 4.59529C7.86824 3.92112 8.45952 3.50234 9.17264 3.50234C10.0987 3.50234 10.8521 4.31928 10.8521 5.32344L10.8521 7.91904C10.8521 8.04537 10.8031 8.16406 10.7139 8.25335C10.6247 8.34255 10.5061 8.39171 10.3796 8.39171L10.3796 8.3917ZM9.17265 3.75345C8.55989 3.75345 8.0715 4.09956 7.86613 4.67927C7.85299 4.71608 7.83931 4.75289 7.82334 4.78876C7.77701 4.89267 7.77701 4.89267 7.76395 4.90761L7.76222 4.90612C7.69757 5.02812 7.50548 5.36076 6.93497 6.34856C6.91153 6.38907 6.90532 6.43611 6.91728 6.4811C6.92939 6.52609 6.95842 6.564 6.99861 6.58721C7.12336 6.65886 7.29421 6.61261 7.36532 6.48873L7.84191 5.66359C7.87038 5.61443 7.92796 5.59028 7.98318 5.60523C8.03808 5.61994 8.07623 5.66973 8.07623 5.72652V8.32051C8.07623 8.4429 8.16857 8.54853 8.28208 8.556C8.34753 8.55946 8.40857 8.53752 8.45442 8.49174C8.49611 8.45005 8.51908 8.39452 8.51908 8.33513V6.63863C8.51908 6.56925 8.57532 6.51301 8.6447 6.51301C8.71408 6.51301 8.77032 6.56917 8.77032 6.63863L8.77024 8.72074C8.77024 8.84282 8.86958 8.94217 8.99166 8.94217C9.05097 8.94217 9.10666 8.9192 9.14843 8.87751C9.19011 8.83574 9.21308 8.78005 9.21308 8.72074V6.63863C9.21308 6.56925 9.26924 6.51301 9.3387 6.51301C9.40808 6.51301 9.46432 6.56917 9.46432 6.63863L9.46424 8.31562V8.33512C9.46424 8.45712 9.56358 8.55646 9.68574 8.55646C9.74497 8.55646 9.8005 8.53342 9.84251 8.49157C9.8842 8.44996 9.90716 8.39443 9.90716 8.33504V6.63854C9.90716 6.56916 9.96333 6.51292 10.0328 6.51292C10.1022 6.51292 10.1584 6.56908 10.1584 6.63854L10.1582 7.9191C10.1582 8.04126 10.2576 8.1406 10.3796 8.1406C10.439 8.1406 10.4945 8.11756 10.5362 8.07595C10.578 8.0341 10.6009 7.97841 10.6009 7.9191L10.601 5.3235C10.601 4.45788 9.96026 3.75348 9.17264 3.75348L9.17265 3.75345Z" fill="#103E13"/>
<path d="M5.44419 10.1957L7.26701 9.10218C7.48678 8.97019 7.76955 9.02627 7.91051 9.22992C7.96195 9.30409 7.98822 9.39054 7.99231 9.47856C8.06027 9.44309 8.13421 9.42382 8.20949 9.42382C8.24803 9.42382 8.28673 9.42861 8.32496 9.43813C8.44743 9.46873 8.55063 9.54526 8.61553 9.65349C8.6805 9.76188 8.69945 9.88891 8.66886 10.0112C8.64062 10.1244 8.57179 10.2197 8.47606 10.2851C8.543 10.3245 8.60074 10.3784 8.6418 10.447C8.70677 10.5554 8.72573 10.6824 8.69521 10.8048C8.66461 10.9272 8.58807 11.0303 8.47968 11.0954L8.47906 11.0958C8.54481 11.1352 8.60153 11.1885 8.64212 11.2561C8.70717 11.3645 8.72612 11.4915 8.69552 11.614C8.66485 11.7364 8.58831 11.8396 8.48008 11.9046L6.25439 13.2398C5.839 13.4889 5.35878 13.5749 4.90241 13.4817C4.44195 13.3876 4.0606 13.1229 3.82873 12.7364C3.46178 12.1248 3.51678 11.4023 3.97197 10.8508C3.99281 10.8256 4.01334 10.8 4.03198 10.7734C4.05173 10.7453 4.07477 10.7123 4.08264 10.7009C4.12975 10.6168 4.89857 9.23159 4.89849 9.23175C4.97613 9.09166 5.12164 9.01236 5.27172 9.01245C5.34173 9.01245 5.41275 9.02967 5.47828 9.06601C5.55741 9.11022 5.62388 9.17464 5.67036 9.25228C5.76593 9.41156 5.76932 9.61089 5.67933 9.7722L5.44419 10.1957ZM5.45512 9.38141C5.43074 9.34074 5.39723 9.30834 5.35625 9.28537C5.27153 9.23849 5.16487 9.26901 5.11823 9.35341C4.56811 10.3445 4.38057 10.6823 4.3082 10.8025L4.30985 10.8028C4.3038 10.823 4.3038 10.823 4.23757 10.9176C4.21507 10.9496 4.19061 10.9804 4.16568 11.0107C3.77426 11.4849 3.72881 12.0817 4.04399 12.6072C4.23922 12.9327 4.56188 13.1558 4.95257 13.2356C5.34751 13.3159 5.76377 13.2412 6.12506 13.0244L8.35095 11.6891C8.40176 11.6587 8.43763 11.6103 8.45194 11.5529C8.46626 11.4957 8.45737 11.4361 8.42685 11.3853C8.36408 11.2807 8.22777 11.2463 8.12315 11.3093L7.02509 11.9681C6.96562 12.0038 6.88838 11.9846 6.85275 11.9251C6.81704 11.8656 6.83631 11.7884 6.89578 11.7527L7.99392 11.094L8.35056 10.88C8.40137 10.8495 8.43732 10.8011 8.45163 10.7439C8.46595 10.6866 8.45706 10.627 8.42654 10.5762C8.36369 10.4715 8.22738 10.4375 8.12284 10.5003L6.66806 11.373C6.60844 11.4088 6.53143 11.3894 6.49572 11.33C6.46001 11.2705 6.47936 11.1933 6.53874 11.1576L8.32421 10.0865C8.37502 10.056 8.41089 10.0077 8.42521 9.95037C8.43952 9.89311 8.43063 9.83356 8.40019 9.78275C8.36975 9.73202 8.32138 9.69615 8.26404 9.68183C8.20638 9.66752 8.14707 9.67641 8.09641 9.70677L7.76589 9.90507C7.76582 9.90507 7.76581 9.90515 7.76574 9.90515H7.76566L6.31096 10.7779C6.25133 10.8137 6.17425 10.7944 6.13862 10.7348C6.10291 10.6754 6.12225 10.5982 6.18164 10.5625L7.63642 9.68978C7.68724 9.65926 7.72318 9.61089 7.7375 9.5537C7.75323 9.49093 7.74127 9.42675 7.70399 9.37294C7.63933 9.27942 7.50105 9.25456 7.3962 9.31757L5.17192 10.6519C5.12323 10.681 5.06086 10.674 5.02003 10.6346C4.97913 10.5951 4.96993 10.533 4.99746 10.4834L5.45998 9.65006C5.50638 9.56676 5.50457 9.46388 5.4551 9.38144L5.45512 9.38141Z" fill="#103E13"/>
<path d="M14.1545 12.7363C13.9226 13.1229 13.5414 13.3875 13.0809 13.4816C12.6244 13.5746 12.1443 13.4888 11.7289 13.2397L9.50298 11.9044C9.39467 11.8394 9.31805 11.7362 9.28738 11.6137C9.25694 11.4914 9.27597 11.3643 9.34086 11.2561C9.38137 11.1885 9.43816 11.1351 9.504 11.0957L9.50337 11.0953C9.39506 11.0304 9.31845 10.9272 9.28793 10.8048C9.25726 10.6824 9.27629 10.5552 9.34126 10.4469C9.38311 10.3773 9.44045 10.3228 9.50589 10.2842C9.41087 10.2188 9.34244 10.1239 9.31428 10.0113C9.28361 9.88878 9.30264 9.76174 9.36761 9.65351C9.43251 9.5452 9.53578 9.46866 9.65818 9.43807C9.69641 9.42847 9.73519 9.42375 9.77357 9.42375C9.84893 9.42383 9.92287 9.44294 9.99083 9.4785C9.995 9.39048 10.0212 9.30403 10.0726 9.22985C10.2137 9.02637 10.4962 8.97005 10.7163 9.10211L12.5391 10.1955L12.3041 9.77227C12.214 9.61071 12.2173 9.41139 12.3128 9.25203C12.3594 9.17447 12.4259 9.11005 12.5055 9.06545C12.5708 9.02927 12.6416 9.01212 12.7115 9.01212C12.8615 9.0122 13.0071 9.09133 13.0847 9.23143C13.355 9.71841 13.865 10.6368 13.9008 10.7009C13.9085 10.712 13.9315 10.7451 13.9513 10.7731C13.9701 10.7998 13.9904 10.8253 14.0114 10.8506C14.4665 11.4023 14.5214 12.1248 14.1544 12.7363L14.1545 12.7363ZM13.8176 11.0107C13.7926 10.9804 13.768 10.9495 13.7457 10.9176C13.6777 10.8212 13.676 10.8187 13.6709 10.7934C13.5914 10.662 13.3976 10.3131 12.8649 9.35328C12.8181 9.26904 12.712 9.23828 12.6274 9.285C12.5858 9.30829 12.5524 9.34077 12.528 9.38144C12.4786 9.46379 12.4767 9.56668 12.5233 9.65022L12.9857 10.4833C13.0133 10.533 13.0041 10.595 12.9633 10.6345C12.9225 10.674 12.8602 10.681 12.8113 10.6519L10.587 9.31749C10.4822 9.25464 10.344 9.27926 10.2792 9.37286C10.2419 9.42667 10.23 9.49085 10.2456 9.55354C10.2599 9.61081 10.2958 9.6591 10.3467 9.68962C10.3469 9.6897 10.347 9.68986 10.3471 9.68993L11.8014 10.5624C11.8609 10.5981 11.8802 10.6752 11.8445 10.7348C11.8088 10.7941 11.7317 10.8136 11.6721 10.7778L9.88666 9.70669C9.836 9.67633 9.77638 9.66737 9.71911 9.68176C9.66169 9.69608 9.6134 9.73194 9.58296 9.78284C9.55244 9.83357 9.54363 9.89311 9.55779 9.95038C9.5721 10.0076 9.60805 10.056 9.65886 10.0865L10.0063 10.2949L11.4442 11.1576C11.5037 11.1933 11.523 11.2704 11.4873 11.33C11.4516 11.3894 11.3746 11.4087 11.3149 11.373L9.86031 10.5003C9.75569 10.4374 9.61946 10.4715 9.55653 10.5763C9.52601 10.6271 9.5172 10.6866 9.53136 10.7439C9.54567 10.8012 9.58162 10.8494 9.63251 10.88L9.98915 11.094L11.0871 11.7528C11.1466 11.7885 11.1659 11.8656 11.1302 11.9251C11.0944 11.9845 11.0174 12.004 10.9578 11.9681L9.85984 11.3094C9.80918 11.279 9.74979 11.27 9.69222 11.2844C9.63495 11.2987 9.5865 11.3346 9.55606 11.3853C9.52562 11.4362 9.51673 11.4958 9.53089 11.553C9.5452 11.6102 9.58115 11.6585 9.63204 11.6891L11.8579 13.0244C12.2191 13.2411 12.6357 13.3162 13.0304 13.2356C13.421 13.1558 13.7437 12.9327 13.9389 12.6072C14.2544 12.0816 14.209 11.4848 13.8177 11.0107L13.8176 11.0107Z" fill="#103E13"/>
</svg>
