<svg width="23" height="20" viewBox="0 0 23 20" fill="none" xmlns="http://www.w3.org/2000/svg">
<path d="M22.2345 13.1845C22.2345 16.5035 19.5439 19.1941 16.2249 19.1941L7.2105 19.1941C6.28855 19.1941 5.54116 18.4467 5.54116 17.5247L5.54116 6.17326C5.54116 4.32937 7.03593 2.8346 8.87983 2.8346L20.5652 2.8346C21.4871 2.8346 22.2345 3.58199 22.2345 4.50393L22.2345 13.1845Z" fill="#E8F5E9"/>
<path d="M9.51966 6.8447C9.41548 6.8447 9.3308 6.76015 9.3308 6.65584V6.33489C9.3308 6.23071 9.41535 6.14603 9.51966 6.14603C9.62383 6.14603 9.70852 6.23058 9.70852 6.33489V6.65584C9.70852 6.76015 9.62384 6.8447 9.51966 6.8447Z" fill="#103E13"/>
<path d="M8.7256 6.8447C8.62143 6.8447 8.53674 6.76015 8.53674 6.65584V6.33489C8.53674 6.23071 8.62129 6.14603 8.7256 6.14603C8.82977 6.14603 8.91446 6.23058 8.91446 6.33489V6.65584C8.91433 6.76015 8.82991 6.8447 8.7256 6.8447Z" fill="#103E13"/>
<path d="M7.93165 6.8447C7.82748 6.8447 7.74279 6.76015 7.74279 6.65584V6.33489C7.74279 6.23071 7.82735 6.14603 7.93165 6.14603C8.03583 6.14603 8.12051 6.23058 8.12051 6.33489V6.65584C8.12051 6.76015 8.03596 6.8447 7.93165 6.8447Z" fill="#103E13"/>
<path d="M9.51966 8.15719C9.41548 8.15719 9.3308 8.07264 9.3308 7.96833V7.64751C9.3308 7.54333 9.41535 7.45865 9.51966 7.45865C9.62383 7.45865 9.70852 7.5432 9.70852 7.64751V7.96833C9.70852 8.07264 9.62384 8.15719 9.51966 8.15719Z" fill="#103E13"/>
<path d="M8.7256 8.15719C8.62143 8.15719 8.53674 8.07264 8.53674 7.96833V7.64751C8.53674 7.54333 8.62129 7.45865 8.7256 7.45865C8.82977 7.45865 8.91446 7.5432 8.91446 7.64751V7.96833C8.91433 8.07264 8.82991 8.15719 8.7256 8.15719Z" fill="#103E13"/>
<path d="M7.93165 8.15719C7.82748 8.15719 7.74279 8.07264 7.74279 7.96833V7.64751C7.74279 7.54333 7.82735 7.45865 7.93165 7.45865C8.03583 7.45865 8.12051 7.5432 8.12051 7.64751V7.96833C8.12051 8.07264 8.03596 8.15719 7.93165 8.15719Z" fill="#103E13"/>
<path d="M9.51966 9.46973C9.41548 9.46973 9.3308 9.38518 9.3308 9.28087V8.95992C9.3308 8.85574 9.41535 8.77106 9.51966 8.77106C9.62383 8.77106 9.70852 8.85561 9.70852 8.95992V9.28087C9.70852 9.38518 9.62384 9.46973 9.51966 9.46973Z" fill="#103E13"/>
<path d="M8.7256 9.46973C8.62143 9.46973 8.53674 9.38518 8.53674 9.28087V8.95992C8.53674 8.85574 8.62129 8.77106 8.7256 8.77106C8.82977 8.77106 8.91446 8.85561 8.91446 8.95992V9.28087C8.91433 9.38518 8.82991 9.46973 8.7256 9.46973Z" fill="#103E13"/>
<path d="M7.93165 9.46973C7.82748 9.46973 7.74279 9.38518 7.74279 9.28087V8.95992C7.74279 8.85574 7.82735 8.77106 7.93165 8.77106C8.03583 8.77106 8.12051 8.85561 8.12051 8.95992V9.28087C8.12051 9.38518 8.03596 9.46973 7.93165 9.46973Z" fill="#103E13"/>
<path d="M9.51966 10.782C9.41548 10.782 9.3308 10.6974 9.3308 10.5931V10.2721C9.3308 10.168 9.41535 10.0833 9.51966 10.0833C9.62383 10.0833 9.70852 10.1678 9.70852 10.2721V10.5931C9.70852 10.6974 9.62384 10.782 9.51966 10.782Z" fill="#103E13"/>
<path d="M8.7256 10.782C8.62143 10.782 8.53674 10.6974 8.53674 10.5931V10.2721C8.53674 10.168 8.62129 10.0833 8.7256 10.0833C8.82977 10.0833 8.91446 10.1678 8.91446 10.2721V10.5931C8.91433 10.6974 8.82991 10.782 8.7256 10.782Z" fill="#103E13"/>
<path d="M7.93165 10.782C7.82748 10.782 7.74279 10.6974 7.74279 10.5931V10.2721C7.74279 10.168 7.82735 10.0833 7.93165 10.0833C8.03583 10.0833 8.12051 10.1678 8.12051 10.2721V10.5931C8.12051 10.6974 8.03596 10.782 7.93165 10.782Z" fill="#103E13"/>
<path d="M9.51966 12.0944C9.41548 12.0944 9.3308 12.0099 9.3308 11.9056V11.5848C9.3308 11.4806 9.41535 11.3959 9.51966 11.3959C9.62383 11.3959 9.70852 11.4805 9.70852 11.5848V11.9056C9.70852 12.0098 9.62384 12.0944 9.51966 12.0944Z" fill="#103E13"/>
<path d="M8.7256 12.0944C8.62143 12.0944 8.53674 12.0099 8.53674 11.9056V11.5848C8.53674 11.4806 8.62129 11.3959 8.7256 11.3959C8.82977 11.3959 8.91446 11.4805 8.91446 11.5848V11.9056C8.91433 12.0098 8.82991 12.0944 8.7256 12.0944Z" fill="#103E13"/>
<path d="M7.93165 12.0944C7.82748 12.0944 7.74279 12.0099 7.74279 11.9056L7.74293 11.5848C7.74293 11.4806 7.82748 11.3959 7.93179 11.3959C8.03596 11.3959 8.12065 11.4805 8.12065 11.5848V11.9056C8.12051 12.0098 8.03596 12.0944 7.93165 12.0944Z" fill="#103E13"/>
<path d="M2.53651 13.4006C2.53651 13.5047 2.62106 13.5894 2.72537 13.5894H14.2263C14.3305 13.5894 14.4152 13.5049 14.4152 13.4006C14.4152 13.2964 14.3306 13.2117 14.2263 13.2117H13.8772V7.78927C13.8772 7.68509 13.7927 7.60041 13.6883 7.60041L10.6048 7.60054V3.69125C10.6048 3.62514 10.5703 3.56403 10.514 3.52979C10.4577 3.49542 10.3874 3.49331 10.3289 3.52373L6.82322 5.34897C6.76066 5.3815 6.72168 5.44604 6.72168 5.5165V8.93118H3.32891C3.22474 8.93118 3.14005 9.01573 3.14005 9.12004V13.2117H2.72495C2.62078 13.2116 2.53635 13.2961 2.53635 13.4005L2.53651 13.4006ZM10.6049 10.4609H13.4997V13.2118L10.6049 13.2117V10.4609ZM10.6049 9.14848H13.4997V10.0833L10.6049 10.0832V9.14848ZM10.6049 7.97806H13.4997V8.77104H10.6049V7.97806ZM7.0992 5.63117L10.2271 4.00256V13.2115H7.0992V5.63117ZM4.45137 11.7033C4.45137 11.3114 4.76192 10.9924 5.14371 10.9924C5.52551 10.9924 5.83619 11.3112 5.83619 11.7033V13.2118H4.45137V11.7033ZM3.51776 9.30883H6.72162V13.2117H6.2139V11.7032C6.2139 11.1031 5.734 10.6147 5.14371 10.6147C4.5537 10.6147 4.07379 11.1029 4.07379 11.7032V13.2117H3.51776V9.30883Z" fill="#103E13"/>
</svg>
