<svg width="17" height="17" viewBox="0 0 17 17" fill="none" xmlns="http://www.w3.org/2000/svg">
<path d="M14.0917 14.4071V13.0717C14.0917 12.3633 13.8103 11.6839 13.3094 11.183C12.8085 10.6821 12.1291 10.4007 11.4207 10.4007H10.753C10.5759 10.4007 10.4061 10.3304 10.2809 10.2052C10.1556 10.0799 10.0853 9.9101 10.0853 9.733V6.39434C10.0853 6.04015 9.94458 5.70047 9.69413 5.45002C9.44368 5.19957 9.104 5.05887 8.74981 5.05887C8.39562 5.05887 8.05594 5.19957 7.8055 5.45002C7.55505 5.70047 7.41435 6.04015 7.41435 6.39434V12.4039L5.81179 10.2672C5.68739 10.1013 5.52609 9.96671 5.34065 9.87399C5.15522 9.78127 4.95074 9.733 4.74341 9.733H4.45362C3.87603 9.733 3.40795 10.2011 3.40795 10.7787C3.40795 10.9683 3.45936 11.1546 3.55685 11.3169L5.41115 14.4071M8.74981 3.05567V2.38794V3.05567ZM12.7562 7.06207H13.4239H12.7562ZM4.07568 7.06207H4.74341H4.07568ZM5.64018 3.95244L5.16809 3.48035L5.64018 3.95244ZM11.8594 3.95244L12.3315 3.48035L11.8594 3.95244Z" fill="#4CAF4F"/>
<path d="M14.0917 14.4071V13.0717C14.0917 12.3633 13.8103 11.6839 13.3094 11.183C12.8085 10.6821 12.1291 10.4007 11.4207 10.4007H10.753C10.5759 10.4007 10.4061 10.3304 10.2809 10.2052C10.1556 10.0799 10.0853 9.9101 10.0853 9.733V6.39434C10.0853 6.04015 9.94458 5.70047 9.69413 5.45002C9.44368 5.19957 9.104 5.05887 8.74981 5.05887V5.05887C8.39562 5.05887 8.05594 5.19957 7.8055 5.45002C7.55505 5.70047 7.41435 6.04015 7.41435 6.39434V12.4039L5.81179 10.2672C5.68739 10.1013 5.52609 9.96671 5.34065 9.87399C5.15522 9.78127 4.95074 9.733 4.74341 9.733H4.45362C3.87603 9.733 3.40795 10.2011 3.40795 10.7787C3.40795 10.9683 3.45936 11.1546 3.55685 11.3169L5.41115 14.4071M8.74981 3.05567V2.38794M12.7562 7.06207H13.4239M4.07568 7.06207H4.74341M5.64018 3.95244L5.16809 3.48035M11.8594 3.95244L12.3315 3.48035" stroke="#4CAF4F" stroke-width="0.667733" stroke-linecap="round" stroke-linejoin="round"/>
</svg>
