<svg width="11" height="12" viewBox="0 0 11 12" fill="none" xmlns="http://www.w3.org/2000/svg">
<path opacity="0.1" fill-rule="evenodd" clip-rule="evenodd" d="M0.0879517 5.72712C0.0879517 2.77689 2.47959 0.385254 5.42982 0.385254C8.38005 0.385254 10.7717 2.77689 10.7717 5.72712C10.7717 8.67735 8.38005 11.069 5.42982 11.069C2.47959 11.069 0.0879517 8.67735 0.0879517 5.72712Z" fill="white"/>
<path fill-rule="evenodd" clip-rule="evenodd" d="M5.43009 2.87817C4.65634 2.87817 4.55924 2.88156 4.25534 2.89539C3.95204 2.90928 3.74501 2.95729 3.56386 3.02775C3.37648 3.10052 3.21752 3.19786 3.05917 3.35628C2.90069 3.51463 2.80335 3.67359 2.73034 3.86091C2.65971 4.04212 2.61163 4.24921 2.59798 4.55239C2.58439 4.85629 2.58083 4.95345 2.58083 5.7272C2.58083 6.50095 2.58427 6.59775 2.59804 6.90165C2.61199 7.20495 2.66 7.41198 2.7304 7.59313C2.80323 7.78051 2.90057 7.93946 3.05899 8.09782C3.21729 8.2563 3.37624 8.35388 3.5635 8.42665C3.74477 8.4971 3.95186 8.54512 4.2551 8.55901C4.559 8.57284 4.65604 8.57622 5.42973 8.57622C6.20354 8.57622 6.30035 8.57284 6.60424 8.55901C6.90754 8.54512 7.11481 8.4971 7.29608 8.42665C7.4834 8.35388 7.64212 8.2563 7.80042 8.09782C7.95889 7.93946 8.05623 7.78051 8.12924 7.59319C8.19928 7.41198 8.24736 7.20489 8.2616 6.90171C8.27525 6.59781 8.27881 6.50095 8.27881 5.7272C8.27881 4.95345 8.27525 4.85635 8.2616 4.55245C8.24736 4.24915 8.19928 4.04212 8.12924 3.86097C8.05623 3.67359 7.95889 3.51463 7.80042 3.35628C7.64194 3.1978 7.48346 3.10046 7.2959 3.02775C7.11428 2.95729 6.90713 2.90928 6.60383 2.89539C6.29993 2.88156 6.20318 2.87817 5.4292 2.87817H5.43009ZM5.17449 3.39158C5.25035 3.39146 5.33499 3.39158 5.43008 3.39158C6.19076 3.39158 6.28092 3.39431 6.58132 3.40797C6.8591 3.42067 7.00986 3.46708 7.11029 3.50608C7.24324 3.55772 7.33803 3.61945 7.43769 3.71916C7.5374 3.81888 7.59913 3.91385 7.65089 4.0468C7.68989 4.14711 7.73636 4.29787 7.749 4.57565C7.76265 4.87598 7.76562 4.9662 7.76562 5.72654C7.76562 6.48687 7.76265 6.57709 7.749 6.87742C7.7363 7.1552 7.68989 7.30596 7.65089 7.40627C7.59925 7.53923 7.5374 7.6339 7.43769 7.73356C7.33797 7.83327 7.2433 7.895 7.11029 7.94664C7.00998 7.98581 6.8591 8.03211 6.58132 8.04481C6.28098 8.05846 6.19076 8.06143 5.43008 8.06143C4.66933 8.06143 4.57917 8.05846 4.27883 8.04481C4.00105 8.03199 3.85029 7.98558 3.7498 7.94658C3.61685 7.89494 3.52188 7.83321 3.42217 7.7335C3.32245 7.63378 3.26072 7.53905 3.20896 7.40604C3.16997 7.30573 3.12349 7.15497 3.11085 6.87719C3.0972 6.57685 3.09447 6.48663 3.09447 5.72582C3.09447 4.96502 3.0972 4.87527 3.11085 4.57494C3.12355 4.29716 3.16997 4.1464 3.20896 4.04597C3.2606 3.91301 3.32245 3.81805 3.42217 3.71833C3.52188 3.61862 3.61685 3.55689 3.7498 3.50513C3.85023 3.46596 4.00105 3.41966 4.27883 3.4069C4.54165 3.39503 4.64351 3.39146 5.17449 3.39087V3.39158ZM6.95086 3.86464C6.76211 3.86464 6.60898 4.0176 6.60898 4.20641C6.60898 4.39515 6.76211 4.54829 6.95086 4.54829C7.13961 4.54829 7.29275 4.39515 7.29275 4.20641C7.29275 4.01766 7.13961 3.86464 6.95086 3.86464ZM5.43009 4.2641C4.6221 4.2641 3.967 4.91919 3.967 5.72719C3.967 6.53519 4.6221 7.18999 5.43009 7.18999C6.23809 7.18999 6.89295 6.53519 6.89295 5.72719C6.89295 4.91919 6.23809 4.2641 5.43009 4.2641ZM5.43008 4.77752C5.95454 4.77752 6.37976 5.20267 6.37976 5.72719C6.37976 6.25165 5.95454 6.67686 5.43008 6.67686C4.90556 6.67686 4.48041 6.25165 4.48041 5.72719C4.48041 5.20267 4.90556 4.77752 5.43008 4.77752Z" fill="white"/>
</svg>
