<svg width="14" height="10" viewBox="0 0 14 10" fill="none" xmlns="http://www.w3.org/2000/svg">
<g clip-path="url(#clip0_1_1465)">
<path fill-rule="evenodd" clip-rule="evenodd" d="M3.37814 1.55513L0.0442238 4.85553C0.711069 5.51568 1.47284 6.07204 2.30338 6.5073C2.53295 7.11013 2.89278 7.67547 3.38289 8.16064C5.2268 9.98599 8.21634 9.98599 10.0602 8.16064C10.5503 7.67547 10.9102 7.11013 11.1397 6.50727C11.9703 6.07204 12.7321 5.51568 13.3989 4.85553L10.0677 1.55781C10.0652 1.55535 10.0627 1.55288 10.0602 1.55042C8.21634 -0.274943 5.2268 -0.274943 3.38289 1.55042C3.38131 1.55199 3.37972 1.55356 3.37814 1.55513ZM9.74121 7.10275C8.76966 7.42734 7.74976 7.59357 6.72155 7.59357C5.69335 7.59357 4.67348 7.42734 3.70193 7.10275C3.8072 7.241 3.92342 7.37368 4.05062 7.49962C5.52574 8.95992 7.91736 8.95992 9.39249 7.49962C9.51969 7.37368 9.63594 7.241 9.74121 7.10275ZM4.1191 2.14533C4.3696 2.30916 4.63596 2.44936 4.91467 2.56365C5.48752 2.79855 6.1015 2.91945 6.72155 2.91945C7.34161 2.91945 7.95559 2.79855 8.52844 2.56365C8.80715 2.44936 9.07351 2.30916 9.32404 2.14533C7.86732 0.773184 5.57579 0.773188 4.1191 2.14533Z" fill="#3B4158"/>
</g>
<defs>
<clipPath id="clip0_1_1465">
<rect width="13.3547" height="9.34826" fill="white" transform="translate(0.0442238 0.181396)"/>
</clipPath>
</defs>
</svg>
