<svg width="19" height="8" viewBox="0 0 19 8" fill="none" xmlns="http://www.w3.org/2000/svg">
<g clip-path="url(#clip0_1_1492)">
<path d="M4.98429 0.516907C4.3063 0.516907 3.65608 0.786237 3.17667 1.26565L1.61208 2.83025C1.13266 3.30966 0.863335 3.95987 0.863335 4.63787C0.863335 6.04972 2.00786 7.19424 3.41971 7.19424C4.0977 7.19424 4.74792 6.9249 5.22733 6.44549L6.30957 5.36325C6.30957 5.36322 6.30959 5.36327 6.30957 5.36325L9.46285 2.20997C9.69181 1.981 10.0024 1.85237 10.3262 1.85237C10.8683 1.85237 11.3279 2.2057 11.4872 2.69462L12.4824 1.69945C12.0284 0.988402 11.2323 0.516907 10.3262 0.516907C9.64817 0.516907 8.99795 0.786237 8.51854 1.26565L4.28302 5.50118C4.05405 5.73014 3.74351 5.85877 3.41971 5.85877C2.74542 5.85877 2.1988 5.31217 2.1988 4.63787C2.1988 4.31406 2.32743 4.00352 2.55639 3.77455L4.12098 2.20997C4.34995 1.981 4.66049 1.85237 4.98429 1.85237C5.52643 1.85237 5.98601 2.20571 6.14535 2.69465L7.14054 1.69948C6.68655 0.988415 5.8905 0.516907 4.98429 0.516907Z" fill="#394149"/>
<path d="M9.62493 5.50118C9.39596 5.73014 9.08542 5.85877 8.76162 5.85877C8.21957 5.85877 7.76002 5.50554 7.60063 5.01669L6.60548 6.01184C7.0595 6.7228 7.8555 7.19424 8.76162 7.19424C9.43961 7.19424 10.0898 6.9249 10.5692 6.44549L14.8048 2.20997C15.0337 1.981 15.3443 1.85237 15.6681 1.85237C16.3424 1.85237 16.889 2.39899 16.889 3.07328C16.889 3.39708 16.7603 3.70762 16.5314 3.93659L14.9668 5.50118C14.7378 5.73014 14.4273 5.85877 14.1035 5.85877C13.5614 5.85877 13.1018 5.50547 12.9424 5.01658L11.9473 6.01175C12.4013 6.72277 13.1973 7.19424 14.1035 7.19424C14.7815 7.19424 15.4317 6.9249 15.9111 6.44549L17.4757 4.8809C17.9551 4.40149 18.2244 3.75127 18.2244 3.07328C18.2244 1.66143 17.0799 0.516907 15.6681 0.516907C14.9901 0.516907 14.3399 0.786237 13.8604 1.26565L9.62493 5.50118Z" fill="#394149"/>
</g>
<defs>
<clipPath id="clip0_1_1492">
<rect width="17.3611" height="6.67733" fill="white" transform="translate(0.863335 0.516907)"/>
</clipPath>
</defs>
</svg>
