<svg width="14" height="10" viewBox="0 0 14 10" fill="none" xmlns="http://www.w3.org/2000/svg">
<g clip-path="url(#clip0_1_1488)">
<path d="M12.9822 0.797019C12.9822 0.952598 13.1099 1.07872 13.2674 1.07872H13.5526C13.7101 1.07872 13.8378 0.952598 13.8378 0.797019C13.8378 0.641441 13.7101 0.51532 13.5526 0.51532H13.2674C13.1099 0.51532 12.9822 0.641441 12.9822 0.797019Z" fill="#212326"/>
<path d="M4.71203 9.52972H6.09738L5.69407 9.13133C5.58711 9.02568 5.44204 8.96632 5.29078 8.96632H4.71203C2.50703 8.96632 0.719541 7.20062 0.719541 5.02252C0.719541 2.84441 2.50703 1.07872 4.71203 1.07872H9.27487C11.4799 1.07872 13.2674 2.84441 13.2674 5.02252C13.2674 7.20062 11.4799 8.96632 9.27487 8.96632H7.568C7.34109 8.96632 7.12349 8.87728 6.96304 8.7188L6.49056 8.25206C6.22315 7.98792 5.86045 7.83952 5.48228 7.83952H4.71203C3.13703 7.83952 1.86025 6.57831 1.86025 5.02252C1.86025 3.46672 3.13703 2.20552 4.71203 2.20552H9.27487C10.8499 2.20552 12.1266 3.46672 12.1266 5.02252C12.1266 6.57831 10.8499 7.83952 9.27487 7.83952H8.1789C7.95199 7.83952 7.73439 7.75048 7.57393 7.592L7.10143 7.12526C6.83402 6.86112 6.47135 6.71272 6.09318 6.71272H4.71203C3.76704 6.71272 3.00096 5.95598 3.00096 5.02252C3.00096 4.08905 3.76704 3.33232 4.71203 3.33232H9.27487C10.2199 3.33232 10.9859 4.08905 10.9859 5.02252C10.9859 5.9446 10.2384 6.69424 9.30937 6.71238L9.30918 6.71272H8.89184C8.66493 6.71272 8.44733 6.62368 8.28688 6.4652L7.81437 5.99846C7.59497 5.78171 7.31141 5.64291 7.00778 5.60007L6.99345 5.58592H4.71203C4.39703 5.58592 4.14167 5.33367 4.14167 5.02252C4.14167 4.71136 4.39703 4.45912 4.71203 4.45912H9.27487C9.58987 4.45912 9.84523 4.71136 9.84523 5.02252C9.84523 5.33367 9.58987 5.58592 9.27487 5.58592H8.13416L8.53747 5.98431C8.64442 6.08996 8.7895 6.14932 8.94076 6.14932H9.27487C9.90486 6.14932 10.4156 5.64483 10.4156 5.02252C10.4156 4.40021 9.90486 3.89572 9.27487 3.89572H4.71203C4.08204 3.89572 3.57132 4.40021 3.57132 5.02252C3.57132 5.64483 4.08204 6.14932 4.71203 6.14932H6.80612C7.03303 6.14932 7.25063 6.23836 7.41109 6.39683L7.88359 6.86357C8.151 7.12772 8.51367 7.27612 8.89184 7.27612H9.41746V7.27179C10.611 7.19909 11.5563 6.21983 11.5563 5.02252C11.5563 3.7779 10.5349 2.76892 9.27487 2.76892H4.71203C3.45204 2.76892 2.43061 3.7779 2.43061 5.02252C2.43061 6.26716 3.45204 7.27612 4.71203 7.27612H6.09318C6.32009 7.27612 6.53769 7.36516 6.69814 7.52363L7.17065 7.99037C7.43805 8.25452 7.80073 8.40292 8.1789 8.40292H9.27487C11.1649 8.40292 12.697 6.88947 12.697 5.02252C12.697 3.15557 11.1649 1.64212 9.27487 1.64212H4.71203C2.82203 1.64212 1.2899 3.15557 1.2899 5.02252C1.2899 6.88947 2.82203 8.40292 4.71203 8.40292H5.48228C5.70919 8.40292 5.92679 8.49196 6.08725 8.65043L6.55975 9.11717C6.82716 9.38132 7.18983 9.52972 7.568 9.52972H9.27487C11.7949 9.52972 13.8377 7.51178 13.8377 5.02252C13.8377 2.53326 11.7949 0.51532 9.27487 0.51532L4.71203 0.515321C2.19204 0.515321 0.149185 2.53326 0.149185 5.02252C0.149185 7.51178 2.19204 9.52972 4.71203 9.52972Z" fill="#212326"/>
</g>
<defs>
<clipPath id="clip0_1_1488">
<rect width="13.6885" height="9.0144" fill="white" transform="translate(0.149185 0.51532)"/>
</clipPath>
</defs>
</svg>
