<svg width="14" height="15" viewBox="0 0 14 15" fill="none" xmlns="http://www.w3.org/2000/svg">
<g clip-path="url(#clip0_1_1462)">
<path fill-rule="evenodd" clip-rule="evenodd" d="M3.74929 0.958862C5.59317 0.958862 7.08796 2.45363 7.08796 4.29753V0.958862H10.4266C12.2705 0.958862 13.7653 2.45363 13.7653 4.29753C13.7653 6.14141 12.2705 7.63619 10.4266 7.63619C12.2705 7.63619 13.7653 9.13098 13.7653 10.9749C13.7653 11.8904 13.3967 12.7199 12.7999 13.3231L12.7874 13.3357L12.7763 13.3467C12.173 13.9444 11.343 14.3135 10.4266 14.3135C9.51654 14.3135 8.69149 13.9494 8.08923 13.3588C8.08141 13.3512 8.0736 13.3434 8.06582 13.3357C8.05851 13.3284 8.05123 13.321 8.04399 13.3136C7.45268 12.7113 7.08796 11.8856 7.08796 10.9749C7.08796 12.8187 5.59317 14.3135 3.74929 14.3135C1.9054 14.3135 0.410629 12.8187 0.410629 10.9749V7.63619H3.74929C1.9054 7.63619 0.410629 6.14141 0.410629 4.29753C0.410629 2.45363 1.9054 0.958862 3.74929 0.958862ZM6.42023 4.29753C6.42023 5.77265 5.22442 6.96846 3.74929 6.96846V1.6266C5.22442 1.6266 6.42023 2.82241 6.42023 4.29753ZM13.0976 10.9749C13.0976 9.49974 11.9017 8.30393 10.4266 8.30393C8.9515 8.30393 7.75569 9.49974 7.75569 10.9749H13.0976ZM1.07836 8.30393V10.9749C1.07836 12.45 2.27418 13.6458 3.74929 13.6458C5.22442 13.6458 6.42023 12.45 6.42023 10.9749V8.30393H1.07836ZM7.75569 6.96846V1.6266H10.4266C11.9017 1.6266 13.0976 2.82241 13.0976 4.29753C13.0976 5.77265 11.9017 6.96846 10.4266 6.96846H7.75569Z" fill="#5417D7"/>
</g>
<defs>
<clipPath id="clip0_1_1462">
<rect width="13.3547" height="13.3547" fill="white" transform="translate(0.410629 0.958862)"/>
</clipPath>
</defs>
</svg>
