<svg width="17" height="17" viewBox="0 0 17 17" fill="none" xmlns="http://www.w3.org/2000/svg">
<g clip-path="url(#clip0_1_1282)">
<path d="M11.3478 4.11995C11.1036 4.11951 10.8606 4.15327 10.6258 4.22026L10.6258 4.22025L10.6239 4.22082C10.5496 4.24297 10.4717 4.25012 10.3946 4.24187C10.3176 4.23362 10.2429 4.21012 10.1751 4.17274L10.0945 4.31897L10.1751 4.17274C10.1072 4.13536 10.0474 4.08485 9.99923 4.02416C9.95105 3.96346 9.91543 3.89378 9.89444 3.81919C9.87345 3.74459 9.86751 3.66656 9.87697 3.58965C9.88642 3.51273 9.91108 3.43847 9.94951 3.37118C9.98794 3.30388 10.0394 3.24491 10.1008 3.19768C10.1623 3.15046 10.2325 3.11593 10.3074 3.0961L10.3074 3.09613L10.3104 3.09528C10.6477 2.99926 10.9967 2.95084 11.3474 2.95142L11.3482 2.95142C12.1362 2.94913 12.9057 3.18975 13.552 3.64052C14.1984 4.09128 14.6901 4.73029 14.9602 5.47054C15.2304 6.21079 15.2658 7.0163 15.0617 7.77741C14.8576 8.53852 14.4239 9.21824 13.8196 9.72401L13.6159 9.89456L13.858 10.0041C14.8507 10.4533 15.7049 11.1603 16.3318 12.0514L16.3326 12.0525C16.3771 12.1148 16.4088 12.1853 16.4259 12.26C16.4429 12.3347 16.4449 12.412 16.4318 12.4875C16.4187 12.563 16.3907 12.6351 16.3495 12.6997C16.3083 12.7642 16.2546 12.82 16.1917 12.8636L16.1917 12.8636L16.1897 12.865C16.0923 12.9347 15.9754 12.9719 15.8556 12.9716C15.7619 12.971 15.6697 12.9482 15.5866 12.9049C15.5035 12.8617 15.4319 12.7993 15.3777 12.7229C14.9225 12.0771 14.3189 11.55 13.6177 11.1859C12.9165 10.8217 12.138 10.6312 11.3479 10.6304H11.3477C11.1927 10.6304 11.0441 10.5688 10.9345 10.4592C10.825 10.3497 10.7634 10.201 10.7634 10.0461C10.7634 9.89113 10.825 9.74252 10.9345 9.63295C11.0441 9.52337 11.1927 9.46182 11.3477 9.46182C12.056 9.46182 12.7354 9.18042 13.2363 8.67952C13.7372 8.17862 14.0186 7.49926 14.0186 6.79088C14.0186 6.08251 13.7372 5.40315 13.2363 4.90225C12.7354 4.40138 12.0561 4.11998 11.3478 4.11995ZM11.3478 4.11995C11.3479 4.11995 11.3479 4.11995 11.348 4.11995L11.3477 4.28689V4.11995C11.3477 4.11995 11.3478 4.11995 11.3478 4.11995ZM8.71743 9.72428L8.51466 9.89486L8.75607 10.0041C9.74875 10.4533 10.603 11.1603 11.2299 12.0514L11.2298 12.0516L11.2349 12.0581C11.2836 12.1205 11.3191 12.1921 11.3393 12.2687L11.5007 12.2261L11.3393 12.2687C11.3594 12.3452 11.3638 12.425 11.3522 12.5033C11.3406 12.5816 11.3132 12.6568 11.2717 12.7241C11.2302 12.7915 11.1754 12.8498 11.1107 12.8953C11.0459 12.9409 10.9726 12.9728 10.8952 12.9892C10.8178 13.0056 10.7378 13.0061 10.6602 12.9906C10.5825 12.9752 10.5089 12.9441 10.4436 12.8993C10.3784 12.8545 10.3229 12.7969 10.2806 12.73L10.2807 12.7299L10.2761 12.7233C9.82181 12.0763 9.2184 11.5481 8.51689 11.1835C7.81537 10.8189 7.03638 10.6285 6.24577 10.6285C5.45516 10.6285 4.67617 10.8189 3.97466 11.1835C3.27315 11.5481 2.66973 12.0763 2.21543 12.7233L2.21506 12.7239C2.16166 12.8006 2.09045 12.8632 2.00755 12.9063C1.92464 12.9495 1.83251 12.9719 1.73905 12.9716L1.73803 12.9716C1.61817 12.972 1.50122 12.9347 1.40371 12.865L1.4029 12.8644C1.27651 12.7752 1.19066 12.6395 1.1642 12.4871C1.13773 12.3346 1.17279 12.1779 1.26171 12.0513C1.88864 11.1602 2.74283 10.4533 3.73548 10.0041L3.97689 9.89486L3.77412 9.72428C3.17148 9.21731 2.73931 8.53729 2.5362 7.77641C2.33309 7.01553 2.36887 6.2106 2.63868 5.47074C2.9085 4.73088 3.39929 4.09189 4.04453 3.64039C4.68978 3.18888 5.45825 2.94672 6.24577 2.94672C7.03329 2.94672 7.80177 3.18888 8.44701 3.64039C9.09225 4.09189 9.58305 4.73088 9.85287 5.47074C10.1227 6.2106 10.1585 7.01553 9.95535 7.77641C9.75224 8.53729 9.32007 9.21731 8.71743 9.72428ZM1.30663 13.0008C1.43262 13.0908 1.58372 13.139 1.73857 13.1385C1.85902 13.1389 1.97776 13.11 2.08461 13.0544C2.19146 12.9988 2.28323 12.9181 2.35205 12.8193C2.79095 12.1941 3.37391 11.6839 4.05165 11.3316C4.72938 10.9794 5.48196 10.7955 6.24577 10.7955C7.00958 10.7955 7.76217 10.9794 8.4399 11.3316C9.11763 11.6839 9.70059 12.1941 10.1395 12.8193L1.30663 13.0008ZM4.02497 5.30699C3.73149 5.74623 3.57484 6.26262 3.57484 6.79088C3.57484 7.49926 3.85624 8.17862 4.35714 8.67952C4.85804 9.18042 5.5374 9.46182 6.24577 9.46182C6.77403 9.46182 7.29043 9.30517 7.72966 9.01168C8.1689 8.7182 8.51124 8.30106 8.71339 7.81301C8.91555 7.32496 8.96844 6.78792 8.86538 6.26981C8.76233 5.7517 8.50794 5.27579 8.13441 4.90225C7.76087 4.52871 7.28496 4.27433 6.76685 4.17127C6.24874 4.06821 5.7117 4.12111 5.22365 4.32326C4.7356 4.52542 4.31846 4.86776 4.02497 5.30699Z" fill="#4CAF4F" stroke="#4CAF4F" stroke-width="0.333867"/>
</g>
<defs>
<clipPath id="clip0_1_1282">
<rect width="16.0256" height="16.0256" fill="white" transform="translate(0.737 0.0300903)"/>
</clipPath>
</defs>
</svg>
